<?xml version="1.0" encoding="UTF-8"?>
<svg version="1.1" xmlns="http://www.w3.org/2000/svg" width="626" height="628">
<path d="M0 0 C3.94567416 3.57216095 7.69619551 7.31927061 11.43359375 11.10546875 C12.48387262 12.15881602 13.53475277 13.21156405 14.5861969 14.26374817 C16.76806556 16.45017589 18.94498865 18.6413603 21.11791992 20.83666992 C23.89372614 23.64093125 26.67829688 26.43628154 29.46613979 29.22857189 C32.14595881 31.91355499 34.82108603 34.60319381 37.49609375 37.29296875 C38.25235456 38.05205064 38.25235456 38.05205064 39.02389336 38.82646751 C40.45659675 40.26608936 41.88547961 41.70951029 43.31420898 43.15307617 C44.12486313 43.97055832 44.93551727 44.78804047 45.77073669 45.6302948 C47.99168522 47.99116139 49.98808715 50.46080851 52 53 C53.30262468 54.20085713 54.63546053 55.36999075 56 56.5 C59.06902646 59.12086918 61.54536168 61.78357738 64 65 C67.52158967 68.63919378 71.21426775 72.07654187 74.92626953 75.52001953 C81.8407538 81.94313472 88.42967385 88.48310876 94.7109375 95.5234375 C97.11834195 98.12803549 99.64844105 100.35514689 102.39453125 102.5859375 C104.91669817 104.80740812 107.00932775 107.37323565 109.1875 109.92578125 C113.43047591 114.78142825 118.05399642 119.23226081 122.9375 123.4375 C128.7154334 128.42082566 134.19528179 133.74212921 139.0625 139.625 C141.74221996 142.83623466 144.74504969 145.47359201 147.921875 148.18359375 C152.63367412 152.3019896 157.01017563 156.74236083 161 161.5625 C163.62985983 164.69864301 166.53870316 167.26446165 169.65234375 169.91015625 C174.17132451 173.93287623 178.36726948 178.29575891 182.61621094 182.59985352 C185.75121516 185.77191583 188.91369206 188.91603971 192.0859375 192.05078125 C201.97371406 201.84470066 201.97371406 201.84470066 205.8125 206.375 C208.62804648 209.69108808 211.71945642 212.47194073 215.02734375 215.2890625 C220.26687822 219.83345082 224.8563316 224.91949725 229.3828125 230.16015625 C231.98122617 233.11632253 234.77675925 235.85773027 237.65234375 238.54296875 C246.56671152 247.06721101 252.70834846 256.99406306 253.3125 269.5 C253.12953532 283.14103361 246.676606 293.16187366 237.74609375 302.8125 C237.22748276 303.37336304 236.70887177 303.93422607 236.17454529 304.51208496 C229.48752067 311.68920286 222.52045189 318.58730169 215.5625 325.5 C214.21395432 326.84351076 212.86564598 328.18725979 211.51757812 329.53125 C208.56703751 332.4721197 205.61430969 335.41077115 202.65943909 338.34729004 C200.43623791 340.561476 198.21852687 342.78113055 196 345 C51 490 51 490 48.67842102 492.31364441 C46.13172574 494.86788403 43.61003674 497.4437428 41.09643555 500.03051758 C36.36902991 504.88921288 31.62087448 509.72707596 26.86076641 514.55373096 C23.99442569 517.46162696 21.13597546 520.37645123 18.29467773 523.30883789 C15.52537227 526.16628266 12.73588582 529.00262843 9.93244362 531.82657433 C8.8805722 532.89298679 7.83563782 533.96629803 6.79865074 535.04718971 C-3.27936289 545.53438739 -15.56771871 553.99417503 -30.5625 554.3125 C-42.54042662 554.17610539 -50.96843129 549.68802956 -60 542 C-61.81322626 540.08422624 -63.36272054 538.07978742 -65 536 C-66.18473287 534.92421614 -67.39206559 533.87307219 -68.61450195 532.84033203 C-73.1070403 528.95901346 -77.29873987 524.82846281 -81.48046875 520.6171875 C-82.25634842 519.83989288 -83.03222809 519.06259827 -83.83161926 518.26174927 C-86.28596156 515.80186104 -88.73679082 513.33850725 -91.1875 510.875 C-92.84286545 509.21461092 -94.4984624 507.55445259 -96.15429688 505.89453125 C-99.84425765 502.19468729 -103.53193506 498.49258489 -107.21757507 494.78843689 C-108.77241044 493.2283572 -110.33163439 491.6728574 -111.89257812 490.11889648 C-113.79588417 488.20522721 -115.57350346 486.25003078 -117.3125 484.1875 C-117.82425781 483.58292969 -118.33601562 482.97835938 -118.86328125 482.35546875 C-119.23839844 481.90816406 -119.61351562 481.46085937 -120 481 C-118.51011866 475.72854484 -115.10172701 472.68388523 -111.3125 468.94921875 C-110.65419189 468.29041214 -109.99588379 467.63160553 -109.31762695 466.95283508 C-107.92921179 465.56675465 -106.53711637 464.18435213 -105.14160156 462.80541992 C-102.99884031 460.68635313 -100.86981263 458.55417436 -98.7421875 456.41992188 C-97.3914171 455.07472498 -96.03988087 453.73029656 -94.6875 452.38671875 C-94.0478833 451.74619064 -93.4082666 451.10566254 -92.74926758 450.44572449 C-88.23104034 446 -88.23104034 446 -86 446 C-85.75378906 445.42926758 -85.50757813 444.85853516 -85.25390625 444.27050781 C-83.79101003 441.6215719 -82.07354681 439.81451454 -79.9375 437.671875 C-79.14085937 436.87265625 -78.34421875 436.0734375 -77.5234375 435.25 C-76.27433594 434.0125 -76.27433594 434.0125 -75 432.75 C-74.16726563 431.90953125 -73.33453125 431.0690625 -72.4765625 430.203125 C-71.67992187 429.4090625 -70.88328125 428.615 -70.0625 427.796875 C-68.96615234 426.70391113 -68.96615234 426.70391113 -67.84765625 425.58886719 C-66 424 -66 424 -64 424 C-63.73445313 423.40832031 -63.46890625 422.81664062 -63.1953125 422.20703125 C-61.96662421 419.93837477 -60.71612243 418.48152395 -58.875 416.6875 C-58.25109375 416.0790625 -57.6271875 415.470625 -56.984375 414.84375 C-55.07339472 413.06819352 -53.11427198 411.37440264 -51.125 409.6875 C-47.11311485 406.24099634 -43.71387162 402.38072682 -40.2265625 398.4140625 C-37.63141076 395.60037167 -34.83204028 393.18172978 -31.91015625 390.71875 C-29.21704238 388.29549825 -26.92227173 385.59189379 -24.578125 382.8359375 C-22.50615532 380.42547773 -20.27475871 378.21927679 -18 376 C-17.40445313 375.39414062 -16.80890625 374.78828125 -16.1953125 374.1640625 C-12.91639442 370.83411067 -9.60907634 367.60746893 -6.0625 364.5625 C-0.65817191 359.90433161 4.64788988 354.9935947 9.0625 349.375 C10.78548305 347.26295627 12.43732562 345.69646773 14.5 343.9375 C19.83454489 339.38362022 24.70302587 334.37737068 29.62646484 329.38964844 C31.74127107 327.25003289 33.87121586 325.12570341 36 323 C37.41675327 321.58341995 38.83341008 320.16674341 40.25 318.75 C49.75 309.25 49.75 309.25 51.99682617 307.00341797 C53.59873879 305.40131011 55.19988778 303.79843873 56.80078125 302.1953125 C58.25130226 300.74736791 59.70693759 299.30452626 61.16796875 297.8671875 C61.83441406 297.20976562 62.50085938 296.55234375 63.1875 295.875 C63.86167969 295.21242188 64.53585937 294.54984375 65.23046875 293.8671875 C67.17553358 291.92056683 67.17553358 291.92056683 69 289 C69.66 289 70.32 289 71 289 C71.26659424 288.40380859 71.53318848 287.80761719 71.80786133 287.19335938 C73.02392138 284.9559882 74.21233239 283.62243799 76.07421875 281.90625 C76.65880859 281.35066406 77.24339844 280.79507812 77.84570312 280.22265625 C79.07983219 279.0683595 80.31949813 277.91995593 81.56445312 276.77734375 C82.14517578 276.22175781 82.72589844 275.66617187 83.32421875 275.09375 C84.1299231 274.34641602 84.1299231 274.34641602 84.9519043 273.58398438 C86.17231716 272.05915613 86.17231716 272.05915613 85.98828125 270.14819336 C84.55593158 267.03474356 82.28260387 264.89485478 79.86328125 262.53515625 C79.34622116 262.01996933 78.82916107 261.50478241 78.2964325 260.97398376 C77.20119544 259.88546197 76.10236997 258.80054052 75.00024414 257.71899414 C73.32903373 256.07872759 71.6685289 254.42823415 70.00976562 252.77539062 C68.94071954 251.71552477 67.87107646 250.65626068 66.80078125 249.59765625 C66.30991531 249.11104019 65.81904938 248.62442413 65.31330872 248.12306213 C62.98009639 245.83686246 60.62291625 243.69706776 58.07495117 241.65014648 C55.76138808 239.75382805 53.82947132 237.73471739 51.88842773 235.45922852 C46.83958928 229.55117106 41.28206754 224.1381158 35.78515625 218.65234375 C34.603487 217.46999923 33.42196609 216.28750643 32.24058533 215.10487366 C29.77537277 212.63819466 27.30838114 210.17331297 24.84008789 207.7097168 C21.69545516 204.57078068 18.55533444 201.42737529 15.41654301 198.28259945 C12.98095768 195.84337994 10.54297011 193.40657259 8.10427666 190.97046089 C6.94626161 189.81310723 5.78897307 188.65502613 4.63246346 187.49616814 C-0.92085707 181.93404453 -6.4639325 176.41076529 -12.47047424 171.33070374 C-14.51874799 169.54868371 -16.25488483 167.57608529 -18 165.5 C-22.08280837 160.85722313 -26.47006802 156.64274503 -31 152.4375 C-31.69287109 151.79401611 -32.38574219 151.15053223 -33.09960938 150.48754883 C-33.77830078 149.85743896 -34.45699219 149.2273291 -35.15625 148.578125 C-38.30882241 145.65117787 -41.42907426 142.70011702 -44.5 139.6875 C-45.1909375 139.01074219 -45.881875 138.33398438 -46.59375 137.63671875 C-48 136 -48 136 -48 134 C-48.52980469 133.79632813 -49.05960937 133.59265625 -49.60546875 133.3828125 C-53.04037143 131.39919823 -55.55238422 128.69835186 -58.3125 125.875 C-58.89354492 125.28823486 -59.47458984 124.70146973 -60.07324219 124.09692383 C-63.64837539 120.46120363 -67.03253422 116.71529994 -70.328125 112.82421875 C-72.86901715 110.05179671 -75.71120294 107.65929306 -78.59375 105.25 C-80.56599517 103.4058227 -82.2513777 101.5826985 -83.99609375 99.53515625 C-89.18531575 93.5152127 -94.91206132 88.01908088 -100.5625 82.4375 C-113.83782704 69.32343507 -113.83782704 69.32343507 -119 63 C-117.84158219 58.22152652 -115.04992925 56.06978339 -111.36328125 53.13671875 C-109.37226394 51.33657582 -107.733052 49.56769271 -106.00195312 47.53100586 C-101.42109956 42.2625514 -96.52263772 37.31946836 -91.60546875 32.3671875 C-91.11687189 31.87451511 -90.62827503 31.38184273 -90.12487221 30.87424088 C-87.54214612 28.27082283 -84.95627569 25.67057432 -82.36791992 23.07275391 C-79.72039576 20.41414884 -77.08477411 17.74405854 -74.45159435 15.07125664 C-72.40006041 12.9934007 -70.3395201 10.92464894 -68.27657509 8.85812759 C-67.30172408 7.87845771 -66.33020334 6.8954605 -65.36235619 5.9088707 C-45.07564821 -14.74636084 -23.09914703 -18.45146938 0 0 Z " fill="#243251" transform="translate(344,42)"/>
<path d="M0 0 C3.19592247 1.52268757 5.35843813 3.11205472 7.86328125 5.6328125 C8.58580078 6.35726562 9.30832031 7.08171875 10.05273438 7.828125 C11.17131836 8.96507813 11.17131836 8.96507813 12.3125 10.125 C13.04662109 10.85976562 13.78074219 11.59453125 14.53710938 12.3515625 C17.77878536 15.61912587 20.92539956 18.90830312 23.90771484 22.41430664 C28.9204574 28.17041374 34.37871859 33.4894177 39.79073524 38.86590004 C41.77276015 40.83503594 43.75153403 42.80738889 45.72953796 44.78056335 C49.92103969 48.96070996 54.11648713 53.13688233 58.3125 57.3125 C63.19478551 62.17116267 68.07542841 67.03145234 72.95189476 71.89595604 C74.90089798 73.8384807 76.85288782 75.77796984 78.80500793 77.71736145 C79.9955593 78.90428158 81.18597122 80.0913416 82.3762207 81.27856445 C82.91907715 81.81625458 83.46193359 82.3539447 84.02124023 82.90792847 C86.29714136 85.18350709 88.20716118 87.31074177 90 90 C89.91587366 93.12561725 88.91866265 94.082723 86.70703125 96.33203125 C85.75183594 97.15058594 84.79664063 97.96914062 83.8125 98.8125 C80.04507542 102.10490148 76.53748331 105.41264192 73.4140625 109.33203125 C69.03673474 114.49534328 63.84113698 118.93357754 58.81640625 123.45117188 C56.06394041 125.96077308 53.54932921 128.46824519 51.21875 131.37890625 C50.4865625 132.24386719 49.754375 133.10882813 49 134 C48.34 134 47.68 134 47 134 C46.77182587 134.55316391 46.54365173 135.10632782 46.30856323 135.67625427 C44.62105745 138.67292593 42.49797156 140.74877291 40.06298828 143.17993164 C39.56193573 143.68288254 39.06088318 144.18583344 38.54464722 144.70402527 C36.89137789 146.36099128 35.23103118 148.01065917 33.5703125 149.66015625 C32.41653584 150.8127402 31.26312925 151.96569473 30.1100769 153.1190033 C27.69381612 155.53370104 25.27423638 157.94500553 22.85205078 160.35375977 C19.75113468 163.43769597 16.65683209 166.52816401 13.56477547 169.62098026 C11.18357589 172.00190756 8.79977596 174.38021673 6.41509628 176.757658 C5.27345133 177.89612617 4.13240628 179.03519625 2.99197769 180.17488289 C1.39574691 181.76893907 -0.20373819 183.35965542 -1.80419922 184.94946289 C-2.71305878 185.85451065 -3.62191833 186.75955841 -4.55831909 187.69203186 C-6.62403582 189.6446246 -8.6826643 191.36173927 -11 193 C-8.48658679 198.65517972 -4.33958682 202.69774296 0 207 C8.33333333 215.33333333 16.66666667 223.66666667 25 232 C25.90387451 232.8986377 26.80774902 233.79727539 27.73901367 234.72314453 C29.86896542 236.86804573 31.84566507 239.08104936 33.8125 241.375 C37.00691772 245.00774948 40.3797295 248.13886959 44.06640625 251.2578125 C46.69811507 253.62900873 48.92945035 256.26733057 51.22265625 258.9609375 C56.11815886 264.57731632 61.56906722 269.56695235 67.203125 274.42578125 C69.58426631 276.5118681 71.78877737 278.73484511 74 281 C75.14082031 282.10794922 75.14082031 282.10794922 76.3046875 283.23828125 C77.54605469 284.45064453 77.54605469 284.45064453 78.8125 285.6875 C79.60269531 286.45449219 80.39289063 287.22148437 81.20703125 288.01171875 C83 290 83 290 83 292 C83.86625 292.3403125 83.86625 292.3403125 84.75 292.6875 C87.5663661 294.33038023 89.08077114 296.39533227 91 299 C86.87295811 305.31727026 81.73819714 310.15920567 76.09765625 315.09375 C73.95554725 317.03132003 72.07617608 319.04342336 70.22412109 321.2578125 C64.2787476 328.10057246 57.73483235 334.3876075 51.31640625 340.78125 C49.89129587 342.20449244 48.46640824 343.62795794 47.04173279 345.05163574 C43.31382991 348.77574302 39.58293244 352.49683584 35.85137939 356.21728516 C32.0351557 360.02323076 28.22180483 363.83205245 24.40820312 367.640625 C16.94159322 375.09654981 9.471813 382.54928963 2 390 C-1.57817553 388.64178229 -3.91406552 387.4527081 -6.59375 384.69921875 C-7.23183594 384.05146484 -7.86992187 383.40371094 -8.52734375 382.73632812 C-9.17832031 382.06021484 -9.82929688 381.38410156 -10.5 380.6875 C-11.15097656 380.02298828 -11.80195313 379.35847656 -12.47265625 378.67382812 C-13.69689612 377.42361953 -14.91800612 376.17033181 -16.13476562 374.9128418 C-18.40233289 372.58739814 -20.70203172 370.29541008 -23 368 C-130 261 -130 261 -132.64946747 258.346138 C-134.16809092 256.83035375 -135.69706224 255.324835 -137.23828125 253.83203125 C-138.26501953 252.83236328 -138.26501953 252.83236328 -139.3125 251.8125 C-140.00988281 251.13832031 -140.70726562 250.46414063 -141.42578125 249.76953125 C-143 248 -143 248 -143 246 C-143.58910156 245.74992188 -144.17820313 245.49984375 -144.78515625 245.2421875 C-147.29309705 243.83561753 -148.62424578 242.34445666 -150.4375 240.125 C-152.39254506 237.80883197 -154.12478397 235.90017282 -156.5 234 C-159.46443172 231.62845463 -161.78028341 228.96044386 -164.234375 226.07421875 C-165.34783784 224.76614626 -166.48098774 223.47434911 -167.640625 222.20703125 C-176.03058468 212.94841413 -178.53283695 202.87781653 -178.30859375 190.53125 C-176.93403162 174.80208332 -165.049905 164.75777127 -154.4609375 154.265625 C-153.24936644 153.05779419 -152.03824365 151.84951357 -150.82754517 150.64080811 C-147.66108045 147.48192195 -144.4886601 144.32908558 -141.31488037 141.17755127 C-138.0891004 137.97227306 -134.8690023 134.76129796 -131.6484375 131.55078125 C-126.44767299 126.36751538 -121.24357103 121.18763051 -116.03471375 116.01249695 C-111.62204229 111.62757966 -107.22072748 107.23279819 -102.86328125 102.79296875 C-101.34646502 101.25770297 -99.82953531 99.7225493 -98.3125 98.1875 C-97.54099609 97.39923828 -96.76949219 96.61097656 -95.97460938 95.79882812 C-95.23662109 95.05439453 -94.49863281 94.30996094 -93.73828125 93.54296875 C-93.06837158 92.86258545 -92.39846191 92.18220215 -91.70825195 91.48120117 C-90 90 -90 90 -88 90 C-87.74229891 89.41725941 -87.48459782 88.83451881 -87.2190876 88.23411942 C-85.89451278 85.80668244 -84.45057481 84.20436322 -82.49459839 82.25408936 C-81.40504852 81.1604155 -81.40504852 81.1604155 -80.29348755 80.04464722 C-79.49651459 79.25486481 -78.69954163 78.4650824 -77.87841797 77.65136719 C-76.61976929 76.39228043 -76.61976929 76.39228043 -75.33569336 75.10775757 C-73.03782233 72.81104028 -70.73557743 70.51881904 -68.43131018 68.2285223 C-66.02274213 65.83246532 -63.61984484 63.43073512 -61.21633911 61.02960205 C-56.66591044 56.48538703 -52.11040801 51.9462939 -47.55305874 47.40902066 C-42.36415889 42.24248334 -37.18094375 37.07025899 -31.99819732 31.89755011 C-21.33844297 21.25869517 -10.67157395 10.62699993 0 0 Z " fill="#E95F22" transform="translate(209,118)"/>
<path d="M0 0 C2.50646618 1.9515708 4.90687316 3.97239329 7.28125 6.08203125 C7.91804688 6.63632812 8.55484375 7.190625 9.2109375 7.76171875 C14.30681808 12.4952256 17.78809918 18.10874335 21.28125 24.08203125 C21.673125 24.71625 22.065 25.35046875 22.46875 26.00390625 C30.60342992 40.36670048 31.35970198 58.48287113 27.25878906 74.13916016 C21.7748133 92.69434271 9.65843894 107.11941879 -6.8359375 116.9375 C-23.59357951 125.75158443 -42.69892961 127.75887556 -60.84375 122.390625 C-76.86040796 117.18600881 -91.32016835 106.89289761 -99.71875 92.08203125 C-100.33363281 91.01210938 -100.94851562 89.9421875 -101.58203125 88.83984375 C-109.90332021 73.36879306 -112.26718288 56.34742813 -108.09375 39.26953125 C-102.11351219 19.53056449 -89.69502936 5.02842064 -71.71875 -4.91796875 C-48.63901294 -16.08844328 -21.27528548 -15.008858 0 0 Z " fill="#E95F23" transform="translate(353.71875,257.91796875)"/>
<path d="M0 0 C3.19592247 1.52268757 5.35843813 3.11205472 7.86328125 5.6328125 C8.58580078 6.35726562 9.30832031 7.08171875 10.05273438 7.828125 C11.17131836 8.96507813 11.17131836 8.96507813 12.3125 10.125 C13.04662109 10.85976562 13.78074219 11.59453125 14.53710938 12.3515625 C17.77878536 15.61912587 20.92539956 18.90830312 23.90771484 22.41430664 C28.9204574 28.17041374 34.37871859 33.4894177 39.79073524 38.86590004 C41.77276015 40.83503594 43.75153403 42.80738889 45.72953796 44.78056335 C49.92103969 48.96070996 54.11648713 53.13688233 58.3125 57.3125 C63.19478551 62.17116267 68.07542841 67.03145234 72.95189476 71.89595604 C74.90089798 73.8384807 76.85288782 75.77796984 78.80500793 77.71736145 C79.9955593 78.90428158 81.18597122 80.0913416 82.3762207 81.27856445 C82.91907715 81.81625458 83.46193359 82.3539447 84.02124023 82.90792847 C86.29714136 85.18350709 88.20716118 87.31074177 90 90 C89.88995011 93.3014967 88.73748807 94.28172012 86.4375 96.75 C85.633125 97.4925 84.82875 98.235 84 99 C83.01 98.67 82.02 98.34 81 98 C81.845625 97.0925 82.69125 96.185 83.5625 95.25 C85.58976253 92.87229674 85.58976253 92.87229674 86.125 89.875 C85.0443603 87.82730171 85.0443603 87.82730171 82.8125 86.25 C79.68494896 83.74795917 77.76615043 81.0915782 75.52734375 77.8046875 C73.832917 75.80257712 72.35857031 75.08121073 70 74 C67 70.57142857 67 70.57142857 67 68 C66.4534375 67.78085938 65.906875 67.56171875 65.34375 67.3359375 C62.24377122 65.5689496 59.95676633 63.16879075 57.5 60.625 C57.02691406 60.14289063 56.55382812 59.66078125 56.06640625 59.1640625 C54.70780022 57.77911231 53.3538063 56.38964235 52 55 C50.20153215 53.19218136 48.40520334 51.3875858 46.5625 49.625 C45.09837408 48.10230904 43.81619498 46.5251549 42.5 44.875 C40.25656749 41.80308932 40.25656749 41.80308932 37 41 C36.04900506 39.58687973 35.10374691 38.16934844 34.19659424 36.72769165 C31.9641841 33.50444668 29.1166029 30.8532401 26.3359375 28.10546875 C25.70265533 27.47264481 25.06937317 26.83982086 24.41690063 26.18782043 C23.0862941 24.86021931 21.75327375 23.5350335 20.41796875 22.2121582 C18.36916438 20.18171669 16.32858154 18.14327968 14.2890625 16.10351562 C12.99266025 14.81202528 11.69580128 13.52099319 10.3984375 12.23046875 C9.78696869 11.62011276 9.17549988 11.00975677 8.54550171 10.38090515 C5.5529005 7.32032784 5.5529005 7.32032784 2 5 C2 4.34 2 3.68 2 3 C-3.96538987 8.05513964 -9.51753295 13.42894731 -15 19 C-16.66586188 20.66747106 -18.33266134 22.3340056 -20 24 C-20.91845703 24.91845703 -21.83691406 25.83691406 -22.78320312 26.78320312 C-30.18880208 34.18880208 -37.59440104 41.59440104 -45 49 C-45.7739209 49.77682129 -46.5478418 50.55364258 -47.34521484 51.35400391 C-50.20931121 54.20861826 -53.09286703 57.04268552 -55.978302 59.8757019 C-59.1905264 63.03434264 -62.39214788 66.20363951 -65.59326172 69.37353516 C-67.28111275 71.04120359 -68.97252683 72.70527354 -70.66748047 74.36572266 C-73.12380051 76.77342158 -75.5668811 79.19390101 -78.0078125 81.6171875 C-79.14224289 82.72065018 -79.14224289 82.72065018 -80.29959106 83.84640503 C-84.51981263 88.06481645 -86.83922959 91.47329459 -89 97 C-90.485 97.495 -90.485 97.495 -92 98 C-92 98.99 -92 99.98 -92 101 C-93 103.1875 -93 103.1875 -94 105 C-94.99 105 -95.98 105 -97 105 C-99.2236068 106.9254644 -99.2236068 106.9254644 -100 110 C-100.99 110.495 -100.99 110.495 -102 111 C-102.66 111.99 -103.32 112.98 -104 114 C-104.33 113.34 -104.66 112.68 -105 112 C-107.61047801 113.305239 -107.68066423 114.35826574 -108.625 117.0625 C-108.88539062 117.79597656 -109.14578125 118.52945313 -109.4140625 119.28515625 C-109.60742188 119.85105469 -109.80078125 120.41695313 -110 121 C-110.66 121 -111.32 121 -112 121 C-112.495 122.98 -112.495 122.98 -113 125 C-113.66 125 -114.32 125 -115 125 C-115.495 126.98 -115.495 126.98 -116 129 C-116.99 128.67 -117.98 128.34 -119 128 C-124.10166257 128.8502771 -126.54144026 130.12813224 -129.62109375 134.28515625 C-132.94626666 138.42042794 -137.34630719 141.7496469 -141.5625 144.9375 C-143.60770084 146.66805456 -145.1561083 148.28464296 -146.875 150.3125 C-152.80607312 157.27852548 -159.49493721 163.57648573 -166 170 C-166.33 169.01 -166.66 168.02 -167 167 C-112 112 -112 112 -109.27999878 109.28198242 C-107.12972685 107.12983972 -104.99423892 104.96421496 -102.86328125 102.79296875 C-101.34646502 101.25770297 -99.82953531 99.7225493 -98.3125 98.1875 C-97.54099609 97.39923828 -96.76949219 96.61097656 -95.97460938 95.79882812 C-95.23662109 95.05439453 -94.49863281 94.30996094 -93.73828125 93.54296875 C-93.06837158 92.86258545 -92.39846191 92.18220215 -91.70825195 91.48120117 C-90 90 -90 90 -88 90 C-87.74229891 89.41725941 -87.48459782 88.83451881 -87.2190876 88.23411942 C-85.89451278 85.80668244 -84.45057481 84.20436322 -82.49459839 82.25408936 C-81.40504852 81.1604155 -81.40504852 81.1604155 -80.29348755 80.04464722 C-79.49651459 79.25486481 -78.69954163 78.4650824 -77.87841797 77.65136719 C-76.61976929 76.39228043 -76.61976929 76.39228043 -75.33569336 75.10775757 C-73.03782233 72.81104028 -70.73557743 70.51881904 -68.43131018 68.2285223 C-66.02274213 65.83246532 -63.61984484 63.43073512 -61.21633911 61.02960205 C-56.66591044 56.48538703 -52.11040801 51.9462939 -47.55305874 47.40902066 C-42.36415889 42.24248334 -37.18094375 37.07025899 -31.99819732 31.89755011 C-21.33844297 21.25869517 -10.67157395 10.62699993 0 0 Z " fill="#FD8553" transform="translate(209,118)"/>
<path d="M0 0 C0.66 0 1.32 0 2 0 C1.85852539 0.57540527 1.71705078 1.15081055 1.57128906 1.74365234 C-0.0084694 8.75816862 -0.30172602 15.45232458 -0.25 22.625 C-0.25773438 23.70523437 -0.26546875 24.78546875 -0.2734375 25.8984375 C-0.25413245 33.81351004 0.66662468 40.52199478 3.9375 47.8125 C4.25589844 48.54082031 4.57429687 49.26914062 4.90234375 50.01953125 C6.04344748 52.07839101 7.34197951 53.35079877 9 55 C10.01965427 57.32481174 11.02059602 59.65794699 12 62 C12.66 62.66 13.32 63.32 14 64 C14.433125 65.2375 14.433125 65.2375 14.875 66.5 C15.78208622 69.1395076 15.78208622 69.1395076 18.125 70.3125 C18.74375 70.539375 19.3625 70.76625 20 71 C20 71.99 20 72.98 20 74 C20.639375 74.103125 21.27875 74.20625 21.9375 74.3125 C22.618125 74.539375 23.29875 74.76625 24 75 C24.33 75.99 24.66 76.98 25 78 C26.93827351 78.55848559 28.88316693 79.10445381 30.85546875 79.52734375 C33.64543899 80.14225522 36.30591238 81.05706933 39 82 C39 82.66 39 83.32 39 84 C44.62923452 85.72323506 50.06573916 87 56 87 C56 87.66 56 88.32 56 89 C75.45171199 89.62860111 91.54766777 88.31650758 107.0859375 75.546875 C109.26496631 73.78586397 111.54471145 72.34644856 114 71 C109.72331392 80.62254368 99.18657889 85.09038649 90 89 C70.95205642 95.49954737 52.04883349 94.29586819 33.875 86 C22.49847535 79.92818627 12.39932591 71.28518657 6 60 C5.07767578 58.39511719 5.07767578 58.39511719 4.13671875 56.7578125 C-5.20135238 39.39634692 -6.46892724 21.34944124 -0.875 2.68359375 C-0.58625 1.79800781 -0.2975 0.91242188 0 0 Z " fill="#E97343" transform="translate(248,290)"/>
<path d="M0 0 C5.24284116 4.3690343 10.51941304 8.83277764 15 14 C15 14.66 15 15.32 15 16 C15.5775 16.226875 16.155 16.45375 16.75 16.6875 C19.5663661 18.33038023 21.08077114 20.39533227 23 23 C18.87295811 29.31727026 13.73819714 34.15920567 8.09765625 39.09375 C5.95554725 41.03132003 4.07617608 43.04342336 2.22412109 45.2578125 C-3.7212524 52.10057246 -10.26516765 58.3876075 -16.68359375 64.78125 C-18.10870413 66.20449244 -19.53359176 67.62795794 -20.95826721 69.05163574 C-24.68617009 72.77574302 -28.41706756 76.49683584 -32.14862061 80.21728516 C-35.9648443 84.02323076 -39.77819517 87.83205245 -43.59179688 91.640625 C-51.05840678 99.09654981 -58.528187 106.54928963 -66 114 C-69.60302634 112.63157088 -71.99103363 111.39182513 -74.734375 108.6640625 C-75.71857422 107.68566406 -75.71857422 107.68566406 -76.72265625 106.6875 C-77.39167969 106.006875 -78.06070313 105.32625 -78.75 104.625 C-79.43449219 103.95210938 -80.11898437 103.27921875 -80.82421875 102.5859375 C-81.47519531 101.93109375 -82.12617188 101.27625 -82.796875 100.6015625 C-83.38823242 100.00682129 -83.97958984 99.41208008 -84.58886719 98.79931641 C-86.11489311 96.85350134 -86.59178049 95.41673928 -87 93 C-83.56906921 95.82098754 -80.28539127 98.6606787 -77.2265625 101.8828125 C-76.74550049 102.38514404 -76.26443848 102.88747559 -75.76879883 103.4050293 C-74.80459355 104.41966744 -73.85104368 105.44454811 -72.90893555 106.47973633 C-71.42388577 108.09225318 -71.42388577 108.09225318 -69 110 C-65.75612196 109.93593778 -64.96368489 108.9673164 -62.5 106.75 C-60.04083858 104.12396693 -60.04083858 104.12396693 -58.1875 101.625 C-56.36713069 99.44055683 -54.69667095 97.82575745 -52.54370117 96.01025391 C-47.146935 91.33288931 -42.14684791 86.27178859 -37.11328125 81.2109375 C-36.08316267 80.17894807 -35.05281882 79.14718347 -34.02226257 78.1156311 C-31.33084798 75.42043107 -28.6424482 72.72224396 -25.95471191 70.02337646 C-23.22358295 67.28199536 -20.4896069 64.54345691 -17.75585938 61.8046875 C-12.94555895 56.98486542 -8.13773353 52.16258888 -3.33174133 47.33847046 C-1.66045312 45.66235911 0.0151054 43.99050158 1.69343567 42.32144165 C3.60124601 40.40132595 5.34913896 38.46539592 7.0625 36.375 C9.17702822 33.86707118 11.23283819 31.8092981 14 30 C13.505 28.02 13.505 28.02 13 26 C12.67 26.66 12.34 27.32 12 28 C12 25 12 25 14 22.8125 C14.66 22.214375 15.32 21.61625 16 21 C15.01 20.34 14.02 19.68 13 19 C13 18.34 13 17.68 13 17 C12.34 17 11.68 17 11 17 C10.76539063 16.27039063 10.53078125 15.54078125 10.2890625 14.7890625 C8.7869374 11.53901001 6.9954278 9.79577615 4.375 7.375 C1.8984375 5.0859375 1.8984375 5.0859375 0 3 C0 2.01 0 1.02 0 0 Z " fill="#F8794D" transform="translate(277,394)"/>
<path d="M0 0 C4.68491174 3.91237815 9.11962651 7.9808312 13.4140625 12.31640625 C13.99159271 12.89535141 14.56912292 13.47429657 15.16415405 14.07078552 C16.98682834 15.89899259 18.80597897 17.73065875 20.625 19.5625 C21.85132772 20.79385366 23.07788843 22.02497533 24.3046875 23.25585938 C26.55954918 25.51883317 28.81305241 27.78314046 31.06494141 30.04907227 C33.70480487 32.70456155 36.35120805 35.35341171 39 38 C40.2949706 39.29487315 41.58988691 40.58980059 42.88476562 41.88476562 C43.60901733 42.60901733 44.33326904 43.33326904 45.07946777 44.07946777 C72.11523438 71.11523438 72.11523438 71.11523438 74.15112305 73.15893555 C75.3009218 74.30387578 76.4597327 75.43992671 77.63208008 76.56176758 C78.78897622 77.6732555 79.90090273 78.83132585 81 80 C81 80.66 81 81.32 81 82 C81.5692218 82.24390472 82.1384436 82.48780945 82.72491455 82.73910522 C85.41675359 84.23097261 87.23090554 85.99108734 89.40136719 88.17431641 C90.2619574 89.03505768 91.12254761 89.89579895 92.00921631 90.78262329 C92.92914368 91.71287323 93.84907104 92.64312317 94.796875 93.6015625 C95.75479097 94.56321086 96.71315114 95.52441694 97.67193604 96.48519897 C100.18835125 99.00923282 102.69870107 101.53921591 105.20782471 104.07049561 C107.77162441 106.6547919 110.34112918 109.23340199 112.91015625 111.8125 C117.94569457 116.86945697 122.9748456 121.93272256 128 127 C127.67 127.99 127.34 128.98 127 130 C19 22 19 22 16.34605694 19.34166241 C14.82892399 17.82737129 13.30142233 16.32336718 11.76171875 14.83203125 C11.07722656 14.16558594 10.39273438 13.49914062 9.6875 12.8125 C8.99011719 12.13832031 8.29273437 11.46414063 7.57421875 10.76953125 C6 9 6 9 6 7 C5.401875 6.7525 4.80375 6.505 4.1875 6.25 C1.71352479 4.83629988 0.56629745 3.34944617 -1 1 C-0.67 0.67 -0.34 0.34 0 0 Z " fill="#F37D4A" transform="translate(60,357)"/>
<path d="M0 0 C0.495 1.485 0.495 1.485 1 3 C-1 6 -1 6 -4 7 C-4 7.99 -4 8.98 -4 10 C-5 12.1875 -5 12.1875 -6 14 C-6.99 14 -7.98 14 -9 14 C-11.2236068 15.9254644 -11.2236068 15.9254644 -12 19 C-12.66 19.33 -13.32 19.66 -14 20 C-14.66 20.99 -15.32 21.98 -16 23 C-16.495 22.01 -16.495 22.01 -17 21 C-19.61047801 22.305239 -19.68066423 23.35826574 -20.625 26.0625 C-20.88539062 26.79597656 -21.14578125 27.52945313 -21.4140625 28.28515625 C-21.60742188 28.85105469 -21.80078125 29.41695312 -22 30 C-22.66 30 -23.32 30 -24 30 C-24.33 31.32 -24.66 32.64 -25 34 C-25.66 34 -26.32 34 -27 34 C-27.33 35.32 -27.66 36.64 -28 38 C-28.99 37.67 -29.98 37.34 -31 37 C-36.10166257 37.8502771 -38.54144026 39.12813224 -41.62109375 43.28515625 C-44.94626666 47.42042794 -49.34630719 50.7496469 -53.5625 53.9375 C-55.60770084 55.66805456 -57.1561083 57.28464296 -58.875 59.3125 C-64.80607312 66.27852548 -71.49493721 72.57648573 -78 79 C-78.33 78.01 -78.66 77.02 -79 76 C-71.88952069 68.82010383 -64.77102898 61.64825998 -57.64210796 54.48667145 C-54.33235078 51.16123794 -51.02545015 47.83306297 -47.72485352 44.49853516 C-44.54131988 41.28247851 -41.3505786 38.07374042 -38.15464211 34.87001038 C-36.93475952 33.64457159 -35.71752668 32.41648934 -34.50296593 31.18577576 C-32.8053203 29.46645002 -31.09861599 27.75664516 -29.3894043 26.04882812 C-28.88589951 25.53453751 -28.38239471 25.02024689 -27.8636322 24.4903717 C-24.34215648 21 -24.34215648 21 -21 21 C-19.42101991 19.80298395 -19.42101991 19.80298395 -17.93359375 18.15625 C-17.36576172 17.56972656 -16.79792969 16.98320312 -16.21289062 16.37890625 C-15.62701172 15.75886719 -15.04113281 15.13882813 -14.4375 14.5 C-13.27412363 13.2768655 -12.1063638 12.05788054 -10.93359375 10.84375 C-10.41853271 10.29912109 -9.90347168 9.75449219 -9.37280273 9.19335938 C-8 8 -8 8 -6 8 C-5.7525 7.4225 -5.505 6.845 -5.25 6.25 C-3.83316683 3.6997003 -2.12372463 1.98214299 0 0 Z " fill="#E9642E" transform="translate(121,209)"/>
<path d="M0 0 C4.72481842 3.68972407 9.27335281 7.55140499 13.24609375 12.046875 C13.24609375 13.036875 13.24609375 14.026875 13.24609375 15.046875 C10.25285112 13.9493527 9.39998474 13.37004608 7.99609375 10.421875 C7.62484375 9.24625 7.62484375 9.24625 7.24609375 8.046875 C6.25609375 8.046875 5.26609375 8.046875 4.24609375 8.046875 C2.88957735 6.73713502 1.56051737 5.39885358 0.24609375 4.046875 C-14.08364266 -6.28386521 -28.11306449 -9.71477694 -45.75390625 -8.953125 C-46.61757813 -8.92347656 -47.48125 -8.89382812 -48.37109375 -8.86328125 C-53.95367216 -8.50676145 -58.44393647 -7.1194141 -63.52734375 -4.79296875 C-65.75390625 -3.953125 -65.75390625 -3.953125 -69.75390625 -3.953125 C-69.75390625 -3.293125 -69.75390625 -2.633125 -69.75390625 -1.953125 C-70.72328125 -1.6025 -71.69265625 -1.251875 -72.69140625 -0.890625 C-78.14099729 1.45603563 -84.47415847 5.04577633 -86.86328125 10.6484375 C-87.1571875 11.43992187 -87.45109375 12.23140625 -87.75390625 13.046875 C-89.40393453 14.40074436 -91.07134495 15.73365642 -92.75390625 17.046875 C-94.39857365 19.51014212 -94.39857365 19.51014212 -95.75390625 22.046875 C-98.07448689 25.42226502 -100.82129275 28.19352132 -103.75390625 31.046875 C-102.67644641 20.14167543 -93.53450698 11.09608314 -85.5703125 4.26171875 C-60.67122462 -15.31911735 -26.62225542 -18.88103221 0 0 Z " fill="#F17645" transform="translate(353.75390625,257.953125)"/>
<path d="M0 0 C-0.33 0.66 -0.66 1.32 -1 2 C-1.97839844 1.38511719 -1.97839844 1.38511719 -2.9765625 0.7578125 C-3.85054688 0.21898437 -4.72453125 -0.31984375 -5.625 -0.875 C-6.48351562 -1.40867187 -7.34203125 -1.94234375 -8.2265625 -2.4921875 C-13.83901731 -5.54346575 -18.91270249 -6.38916314 -25.25 -6.375 C-26.37498901 -6.37258301 -26.37498901 -6.37258301 -27.52270508 -6.37011719 C-33.63206044 -6.2356283 -38.66901149 -5.10096998 -44 -2 C-44.88816406 -1.484375 -45.77632813 -0.96875 -46.69140625 -0.4375 C-51.44796294 2.78417413 -55.27206458 7.14374409 -59.25 11.25 C-60.85475206 12.90553535 -62.46389778 14.55682704 -64.078125 16.203125 C-64.78356445 16.93176758 -65.48900391 17.66041016 -66.21582031 18.41113281 C-68 20 -68 20 -70 20 C-70.268125 20.639375 -70.53625 21.27875 -70.8125 21.9375 C-72 24 -72 24 -75 25 C-75.67258595 26.33035723 -76.33798311 27.66435189 -77 29 C-78.55487672 30.69247643 -80.16529226 32.33474465 -81.8125 33.9375 C-82.66457031 34.77152344 -83.51664062 35.60554688 -84.39453125 36.46484375 C-85.25433594 37.30144531 -86.11414063 38.13804688 -87 39 C-89.26285068 41.24938133 -91.51969936 43.50018376 -93.73046875 45.80078125 C-95.11573927 47.23804584 -96.556786 48.62092884 -98 50 C-98.66 50 -99.32 50 -100 50 C-100.99 52.475 -100.99 52.475 -102 55 C-102.66 55 -103.32 55 -104 55 C-104.33 55.99 -104.66 56.98 -105 58 C-105.66 58.4125 -106.32 58.825 -107 59.25 C-109.90989004 61.79615378 -109.71839491 64.26873252 -110 68 C-109.01 68.33 -108.02 68.66 -107 69 C-106.67 70.98 -106.34 72.96 -106 75 C-109 72 -112 69 -115 66 C-113.84158219 61.22152652 -111.04992925 59.06978339 -107.36328125 56.13671875 C-105.37226394 54.33657582 -103.733052 52.56769271 -102.00195312 50.53100586 C-97.42109956 45.2625514 -92.52263772 40.31946836 -87.60546875 35.3671875 C-87.11687189 34.87451511 -86.62827503 34.38184273 -86.12487221 33.87424088 C-83.54214612 31.27082283 -80.95627569 28.67057432 -78.36791992 26.07275391 C-75.72039576 23.41414884 -73.08477411 20.74405854 -70.45159435 18.07125664 C-68.40006041 15.9934007 -66.3395201 13.92464894 -64.27657509 11.85812759 C-63.30172408 10.87845771 -62.33020334 9.8954605 -61.36235619 8.9088707 C-43.63920471 -9.13623538 -21.50804276 -16.83238129 0 0 Z " fill="#33405C" transform="translate(340,39)"/>
<path d="M0 0 C3.39639947 0.58270422 5.02449516 1.65650338 7.42578125 4.09765625 C8.05806641 4.73509766 8.69035156 5.37253906 9.34179688 6.02929688 C10.31729492 7.03573242 10.31729492 7.03573242 11.3125 8.0625 C11.95123047 8.70638672 12.58996094 9.35027344 13.24804688 10.01367188 C18.1268174 14.97153088 18.1268174 14.97153088 20.31446838 17.54823303 C25.79783885 23.99466508 31.79142146 29.90597666 37.79073524 35.86590004 C39.77276015 37.83503594 41.75153403 39.80738889 43.72953796 41.78056335 C47.92103969 45.96070996 52.11648713 50.13688233 56.3125 54.3125 C61.19478551 59.17116267 66.07542841 64.03145234 70.95189476 68.89595604 C72.90089798 70.8384807 74.85288782 72.77796984 76.80500793 74.71736145 C77.9955593 75.90428158 79.18597122 77.0913416 80.3762207 78.27856445 C80.91907715 78.81625458 81.46193359 79.3539447 82.02124023 79.90792847 C84.29714136 82.18350709 86.20716118 84.31074177 88 87 C87.88995011 90.3014967 86.73748807 91.28172012 84.4375 93.75 C83.633125 94.4925 82.82875 95.235 82 96 C80.515 95.505 80.515 95.505 79 95 C79.845625 94.0925 80.69125 93.185 81.5625 92.25 C83.58976253 89.87229674 83.58976253 89.87229674 84.125 86.875 C83.0443603 84.82730171 83.0443603 84.82730171 80.8125 83.25 C77.68494896 80.74795917 75.76615043 78.0915782 73.52734375 74.8046875 C71.832917 72.80257712 70.35857031 72.08121073 68 71 C65 67.57142857 65 67.57142857 65 65 C64.4534375 64.78085938 63.906875 64.56171875 63.34375 64.3359375 C60.24377122 62.5689496 57.95676633 60.16879075 55.5 57.625 C55.02691406 57.14289063 54.55382812 56.66078125 54.06640625 56.1640625 C52.70780022 54.77911231 51.3538063 53.38964235 50 52 C48.20153215 50.19218136 46.40520334 48.3875858 44.5625 46.625 C43.09837408 45.10230904 41.81619498 43.5251549 40.5 41.875 C38.25656749 38.80308932 38.25656749 38.80308932 35 38 C34.04900506 36.58687973 33.10374691 35.16934844 32.19659424 33.72769165 C29.9641841 30.50444668 27.1166029 27.8532401 24.3359375 25.10546875 C23.70265533 24.47264481 23.06937317 23.83982086 22.41690063 23.18782043 C21.0862941 21.86021931 19.75327375 20.5350335 18.41796875 19.2121582 C16.36916438 17.18171669 14.32858154 15.14327968 12.2890625 13.10351562 C10.99266025 11.81202528 9.69580128 10.52099319 8.3984375 9.23046875 C7.78696869 8.62011276 7.17549988 8.00975677 6.54550171 7.38090515 C3.5529005 4.32032784 3.5529005 4.32032784 0 2 C0 1.34 0 0.68 0 0 Z " fill="#F57C4D" transform="translate(211,121)"/>
<path d="M0 0 C0.66 0.33 1.32 0.66 2 1 C1.34 2.32 0.68 3.64 0 5 C0.89301656 6.06486855 1.7895947 7.12675041 2.6875 8.1875 C3.18636719 8.77917969 3.68523437 9.37085938 4.19921875 9.98046875 C6.37426783 12.41973203 8.68310751 14.69463127 11 17 C19.33333333 25.33333333 27.66666667 33.66666667 36 42 C36.90387451 42.8986377 37.80774902 43.79727539 38.73901367 44.72314453 C40.86896542 46.86804573 42.84566507 49.08104936 44.8125 51.375 C48.00691772 55.00774948 51.3797295 58.13886959 55.06640625 61.2578125 C57.69409922 63.62539041 59.92257877 66.25856865 62.2109375 68.94921875 C66.69716326 74.09172644 71.53480612 78.90110459 77 83 C76.505 84.485 76.505 84.485 76 86 C75.48614746 85.47043701 74.97229492 84.94087402 74.44287109 84.39526367 C72.09493761 81.98470806 69.73516115 79.58608238 67.375 77.1875 C66.56675781 76.35412109 65.75851562 75.52074219 64.92578125 74.66210938 C60.80609543 70.49218348 57.37655192 67.46155389 52 65 C50.4453125 63.08203125 50.4453125 63.08203125 49.125 60.8125 C45.02560209 54.50932554 39.7271204 49.54151716 34.33447266 44.35864258 C33.64788574 43.69372803 32.96129883 43.02881348 32.25390625 42.34375 C31.62814697 41.74755859 31.0023877 41.15136719 30.35766602 40.53710938 C29 39 29 39 29 37 C28.401875 36.731875 27.80375 36.46375 27.1875 36.1875 C25.00152146 35.00082594 23.58667406 33.90400887 22 32 C22 31.34 22 30.68 22 30 C21.4225 29.773125 20.845 29.54625 20.25 29.3125 C18 28 18 28 16.0625 25.5625 C13.91620036 22.8958853 11.9198927 21.70327074 9 20 C9 19.34 9 18.68 9 18 C8.195625 17.7525 7.39125 17.505 6.5625 17.25 C5.716875 16.8375 4.87125 16.425 4 16 C3.84660156 15.37609375 3.69320312 14.7521875 3.53515625 14.109375 C2.73103583 10.93984924 0.60581576 9.61967788 -1.8203125 7.5625 C-3 6 -3 6 -2.8046875 3.9375 C-2 2 -2 2 0 0 Z " fill="#F37744" transform="translate(198,308)"/>
<path d="M0 0 C0.99 0.495 0.99 0.495 2 1 C-20.77 23.77 -43.54 46.54 -67 70 C-67.99 69.67 -68.98 69.34 -70 69 C-68.71937515 67.2925002 -67.38232443 65.62626404 -66 64 C-65.34 64 -64.68 64 -64 64 C-64 63.34 -64 62.68 -64 62 C-62.34997172 60.64613064 -60.6825613 59.31321858 -59 58 C-58.67 57.34 -58.34 56.68 -58 56 C-57.34 56 -56.68 56 -56 56 C-56 55.34 -56 54.68 -56 54 C-55.34 54 -54.68 54 -54 54 C-54 53.34 -54 52.68 -54 52 C-48.52380952 47 -48.52380952 47 -46 47 C-45.690625 45.88625 -45.690625 45.88625 -45.375 44.75 C-43.58160467 41.16320933 -41.3392383 40.20515737 -38 38 C-36.16014661 36.07745657 -34.45506143 34.07179114 -32.73828125 32.0390625 C-30.29824458 29.17681724 -27.75468499 26.56249767 -25 24 C-24.34 24 -23.68 24 -23 24 C-22.34 22.35 -21.68 20.7 -21 19 C-20.01 19 -19.02 19 -18 19 C-17.76410156 18.25105469 -17.52820313 17.50210937 -17.28515625 16.73046875 C-15.78462899 13.54241844 -14.28233448 12.34452463 -11.4375 10.3125 C-8.18604233 8.11332885 -8.18604233 8.11332885 -6 5 C-5.34 5 -4.68 5 -4 5 C-4 4.34 -4 3.68 -4 3 C-2 1.375 -2 1.375 0 0 Z " fill="#304058" transform="translate(485,439)"/>
<path d="M0 0 C0.99 0.99 0.99 0.99 2 2 C0.38150935 3.83946539 -1.24418831 5.67151417 -2.875 7.5 C-3.33519531 8.02464844 -3.79539062 8.54929688 -4.26953125 9.08984375 C-5.47172076 10.43141755 -6.73245946 11.71999185 -8 13 C-8.66 13 -9.32 13 -10 13 C-10.22875824 13.55407532 -10.45751648 14.10815063 -10.69320679 14.67901611 C-12.37272967 17.66200187 -14.4808518 19.71986238 -16.90869141 22.13574219 C-17.65527763 22.88276649 -17.65527763 22.88276649 -18.41694641 23.6448822 C-20.0571207 25.28366733 -21.70425661 26.91526134 -23.3515625 28.546875 C-24.49257256 29.68415347 -25.63314077 30.8218754 -26.77328491 31.96002197 C-29.77078762 34.94989979 -32.77424851 37.93372191 -35.7789917 40.9163208 C-38.84586712 43.96271321 -41.90706694 47.01479703 -44.96875 50.06640625 C-50.97362783 56.04985434 -56.98481232 62.02691663 -63 68 C-63.99 67.67 -64.98 67.34 -66 67 C-13 14 -13 14 -10.25492859 11.272995 C-8.46551214 9.4692418 -6.86793814 7.68734903 -5.3125 5.6875 C-4.549375 4.800625 -3.78625 3.91375 -3 3 C-2.34 3 -1.68 3 -1 3 C-0.67 2.01 -0.34 1.02 0 0 Z " fill="#F37545" transform="translate(266,239)"/>
<path d="M0 0 C0 0.66 0 1.32 0 2 C-0.66 2 -1.32 2 -2 2 C-2 2.66 -2 3.32 -2 4 C-3.49609375 5.4375 -3.49609375 5.4375 -5.4375 7 C-8.15188238 9.14525044 -8.15188238 9.14525044 -10 12 C-10.66 12 -11.32 12 -12 12 C-12 12.66 -12 13.32 -12 14 C-16.022925 18.32836931 -20.49307795 22.2161163 -24.890625 26.15820312 C-27.84374738 28.75886077 -27.84374738 28.75886077 -30 32 C-30.66 32 -31.32 32 -32 32 C-32.226875 32.5775 -32.45375 33.155 -32.6875 33.75 C-34.34761639 36.59591381 -36.39187957 37.99841921 -39 40 C-41.79923743 42.65568679 -44.35598901 45.40726916 -46.8125 48.375 C-49.63783891 51.72462861 -52.76640497 54.52716043 -56.10546875 57.35546875 C-57.78920884 58.81702458 -59.33654415 60.32643266 -60.875 61.9375 C-63 64 -63 64 -65 64 C-63.54758264 60.66765426 -61.7149914 58.45774394 -59.15625 55.890625 C-58.40472656 55.13652344 -57.65320313 54.38242187 -56.87890625 53.60546875 C-56.09386719 52.82816406 -55.30882812 52.05085938 -54.5 51.25 C-53.71496094 50.45722656 -52.92992187 49.66445313 -52.12109375 48.84765625 C-50.99380859 47.72423828 -50.99380859 47.72423828 -49.84375 46.578125 C-49.15474609 45.89137695 -48.46574219 45.20462891 -47.75585938 44.49707031 C-46 43 -46 43 -44 43 C-43.73445313 42.40832031 -43.46890625 41.81664062 -43.1953125 41.20703125 C-41.96662421 38.93837477 -40.71612243 37.48152395 -38.875 35.6875 C-37.93914062 34.77484375 -37.93914062 34.77484375 -36.984375 33.84375 C-35.07339472 32.06819352 -33.11427198 30.37440264 -31.125 28.6875 C-27.11311485 25.24099634 -23.71387162 21.38072682 -20.2265625 17.4140625 C-17.63501957 14.60428438 -14.84549882 12.1866547 -11.91796875 9.73828125 C-9.15972207 7.23844465 -6.86298351 4.40805775 -4.54296875 1.50390625 C-3 0 -3 0 0 0 Z " fill="#383F5A" transform="translate(324,423)"/>
<path d="M0 0 C0 3 0 3 -1.4765625 4.796875 C-13.46311485 15.69374077 -26.5592067 20.35455705 -42.625 20.3125 C-43.83285156 20.32861328 -45.04070312 20.34472656 -46.28515625 20.36132812 C-58.69183542 20.36800556 -68.98468728 17.50765636 -80 12 C-80 11.01 -80 10.02 -80 9 C-78.02 9.66 -76.04 10.32 -74 11 C-74 11.66 -74 12.32 -74 13 C-68.37076548 14.72323506 -62.93426084 16 -57 16 C-57 16.66 -57 17.32 -57 18 C-36.2594469 18.67025127 -20.39560786 16.651988 -4 3 C-2.67221949 1.99263875 -1.3404801 0.99039936 0 0 Z " fill="#E46A37" transform="translate(361,361)"/>
<path d="M0 0 C0.99 0.33 1.98 0.66 3 1 C-8.22 12.22 -19.44 23.44 -31 35 C-35.24226456 33.30309418 -36.73381349 32.64758458 -39.734375 29.6640625 C-40.39050781 29.01179688 -41.04664063 28.35953125 -41.72265625 27.6875 C-42.39167969 27.006875 -43.06070313 26.32625 -43.75 25.625 C-44.43449219 24.95210938 -45.11898437 24.27921875 -45.82421875 23.5859375 C-46.47519531 22.93109375 -47.12617188 22.27625 -47.796875 21.6015625 C-48.38823242 21.00682129 -48.97958984 20.41208008 -49.58886719 19.79931641 C-51.11489311 17.85350134 -51.59178049 16.41673928 -52 14 C-48.56906921 16.82098754 -45.28539127 19.6606787 -42.2265625 22.8828125 C-41.50496948 23.63630981 -41.50496948 23.63630981 -40.76879883 24.4050293 C-39.80459355 25.41966744 -38.85104368 26.44454811 -37.90893555 27.47973633 C-36.42388577 29.09225318 -36.42388577 29.09225318 -34 31 C-30.75612196 30.93593778 -29.96368489 29.9673164 -27.5 27.75 C-25.04083858 25.12396693 -25.04083858 25.12396693 -23.1875 22.625 C-21.37371565 20.44845878 -19.70208731 18.81730638 -17.5625 17 C-11.35376758 11.7102071 -5.7237226 5.80224928 0 0 Z " fill="#F3794D" transform="translate(242,473)"/>
<path d="M0 0 C0.495 1.485 0.495 1.485 1 3 C-16.66666667 20.66666667 -34.33333333 38.33333333 -52 56 C-52.495 54.515 -52.495 54.515 -53 53 C-35.51 35.51 -18.02 18.02 0 0 Z " fill="#FC8452" transform="translate(95,232)"/>
<path d="M0 0 C0 6.33437438 -7.51728992 11.56890888 -11.74194336 15.85546875 C-13.52201207 17.63538118 -15.30476712 19.41261006 -17.08984375 21.1875 C-18.04412993 22.13991612 -18.99819188 23.09255695 -19.95204163 24.04541016 C-22.4370797 26.52666925 -24.92510796 29.00490791 -27.41381836 31.48248291 C-29.96327496 34.02162485 -32.50982688 36.56367646 -35.05664062 39.10546875 C-40.03495631 44.07312882 -45.01644371 49.03759686 -50 54 C-50.99 53.67 -51.98 53.34 -53 53 C-50.375 49.125 -50.375 49.125 -47 48 C-46.67 47.34 -46.34 46.68 -46 46 C-45.34 46 -44.68 46 -44 46 C-44 45.34 -44 44.68 -44 44 C-42.6206529 42.81311994 -41.23715997 41.6289022 -39.80078125 40.51171875 C-34.64277196 36.18167624 -30.16261057 31.03239613 -25.5625 26.125 C-24.91990234 25.44308594 -24.27730469 24.76117187 -23.61523438 24.05859375 C-20.53203719 20.77193685 -17.52908956 17.46174375 -14.65234375 13.9921875 C-13.77707031 13.00476563 -12.90179688 12.01734375 -12 11 C-11.34 11 -10.68 11 -10 11 C-10 10.34 -10 9.68 -10 9 C-9.34 9 -8.68 9 -8 9 C-8 8.34 -8 7.68 -8 7 C-6.125 4.875 -6.125 4.875 -4 3 C-3.34 3 -2.68 3 -2 3 C-2 2.34 -2 1.68 -2 1 C-1.34 0.67 -0.68 0.34 0 0 Z " fill="#313E58" transform="translate(391,532)"/>
<path d="M0 0 C0.66 0 1.32 0 2 0 C0.19596111 4.66043381 0.19596111 4.66043381 -1.0234375 6.7734375 C-5.89759336 15.79581111 -5.10771551 26.84271863 -2.5 36.5 C-2.02132475 38.00694061 -1.53019485 39.51040495 -1 41 C-0.34 41 0.32 41 1 41 C1.37382813 41.8559375 1.74765625 42.711875 2.1328125 43.59375 C4.27247578 47.49706878 6.80211578 50.3214146 9.875 53.5 C10.91549366 54.59238861 11.95456839 55.68613059 12.9921875 56.78125 C13.49331055 57.30976563 13.99443359 57.83828125 14.51074219 58.3828125 C16.77528532 60.8418836 18.88636552 63.41060278 21 66 C14.98286011 63.3257156 10.95833671 59.0052123 6.765625 54.07421875 C5.65216216 52.76614626 4.51901226 51.47434911 3.359375 50.20703125 C-5.03672325 40.94164 -7.49662666 30.89783991 -7.32421875 18.55078125 C-6.70290221 11.74624233 -4.56038875 5.19477354 0 0 Z " fill="#F87844" transform="translate(38,290)"/>
<path d="M0 0 C0.33 0.99 0.66 1.98 1 3 C1.66 3 2.32 3 3 3 C7.1773791 20.76235177 2.23341461 37.85305019 -7 53 C-7.66 53 -8.32 53 -9 53 C-7.35971892 47.88930943 -5.34628657 43.02082776 -3.21875 38.09765625 C0.09356276 29.67886131 0.24379414 22.61369944 0.125 13.5625 C0.11597656 12.25861328 0.10695313 10.95472656 0.09765625 9.61132812 C0.07418397 6.40736168 0.04134727 3.20377736 0 0 Z " fill="#EE6F3C" transform="translate(379,298)"/>
<path d="M0 0 C3.56782871 0.55602525 4.92229114 1.68606826 7.125 4.5 C9.19887681 7.1880384 9.19887681 7.1880384 12 9 C12 9.66 12 10.32 12 11 C12.61875 11.268125 13.2375 11.53625 13.875 11.8125 C16 13 16 13 18 16 C18.99 16.33 19.98 16.66 21 17 C21.28875 17.598125 21.5775 18.19625 21.875 18.8125 C23.34745899 21.6756147 25.49895394 23.02548995 28 25 C28 25.66 28 26.32 28 27 C28.5775 27.226875 29.155 27.45375 29.75 27.6875 C32.59591381 29.34761639 33.99841921 31.39187957 36 34 C38.65568679 36.79923743 41.40726916 39.35598901 44.375 41.8125 C48.74102477 45.49872705 53.42064662 49.84129323 56 55 C52.1415126 53.41244672 49.70051535 50.94799596 46.77246094 48.01538086 C46.26469116 47.50950943 45.75692139 47.003638 45.23376465 46.48243713 C43.56238032 44.81474762 41.89828788 43.13998526 40.234375 41.46484375 C39.07460393 40.30388042 37.91446279 39.14328667 36.75396729 37.98304749 C34.32668081 35.55419857 31.90278708 33.12203089 29.48144531 30.68725586 C26.37033795 27.55911167 23.25264065 24.43763833 20.13262558 21.31838131 C17.73895186 18.92443642 15.34788746 16.52790005 12.95771027 14.13046455 C11.80839666 12.97795941 10.65846811 11.82606719 9.50792694 10.67478752 C7.90606558 9.0707704 6.30753335 7.46351197 4.70996094 5.85522461 C3.79825134 4.93970322 2.88654175 4.02418182 1.94720459 3.08091736 C0 1 0 1 0 0 Z " fill="#363E56" transform="translate(343,223)"/>
<path d="M0 0 C0 0.99 0 1.98 0 3 C-1.36917664 4.20997006 -2.74425118 5.4181133 -4.19921875 6.5234375 C-7.18052414 8.96797858 -9.80050965 11.77245024 -12.49243164 14.52734375 C-14.05462083 16.12519936 -15.62099022 17.71888127 -17.1875 19.3125 C-17.98704102 20.13717773 -17.98704102 20.13717773 -18.80273438 20.97851562 C-20.16424956 22.35715678 -21.57840502 23.68339727 -23 25 C-23.66 25 -24.32 25 -25 25 C-25.37125 25.8353125 -25.37125 25.8353125 -25.75 26.6875 C-27 29 -27 29 -29.125 31.625 C-31.2065481 33.75730599 -31.2065481 33.75730599 -31 36 C-30.01 36.33 -29.02 36.66 -28 37 C-26.3125 39.5625 -26.3125 39.5625 -25 42 C-28 42 -28 42 -29.60546875 40.46875 C-30.12753906 39.8190625 -30.64960938 39.169375 -31.1875 38.5 C-31.71730469 37.8503125 -32.24710938 37.200625 -32.79296875 36.53125 C-33.19128906 36.0259375 -33.58960938 35.520625 -34 35 C-32.5106752 29.83084492 -29.29154415 26.87244245 -25.56640625 23.203125 C-24.93266586 22.56888611 -24.29892548 21.93464722 -23.64598083 21.28118896 C-22.30884007 19.94638278 -20.96801936 18.61525409 -19.6237793 17.28759766 C-17.56444613 15.25192377 -15.51882281 13.20318866 -13.47460938 11.15234375 C-12.17266636 9.85597559 -10.86995781 8.5603757 -9.56640625 7.265625 C-8.95382462 6.65213196 -8.34124298 6.03863892 -7.71009827 5.40655518 C-7.13617844 4.84216736 -6.56225861 4.27777954 -5.97094727 3.69628906 C-5.46845963 3.19840881 -4.96597198 2.70052856 -4.44825745 2.18756104 C-3 1 -3 1 0 0 Z " fill="#384159" transform="translate(258,488)"/>
<path d="M0 0 C3.89039293 3.1665989 7.44999478 6.44999478 11 10 C11.78375 10.5775 12.5675 11.155 13.375 11.75 C15.81986761 13.84560081 17.45588682 15.8133266 19.375 18.375 C22.08774073 21.9723301 24.87881732 24.83586548 28.37109375 27.6640625 C30.74786496 29.61335688 32.85742437 31.79951692 35 34 C35.763125 34.721875 36.52625 35.44375 37.3125 36.1875 C39 38 39 38 39 40 C40.32 40.66 41.64 41.32 43 42 C42.505 42.99 42.505 42.99 42 44 C32.49149777 35.79024145 23.72675511 26.83967891 14.875 17.9375 C13.33096375 16.38843801 11.78669474 14.839608 10.2421875 13.29101562 C6.49210432 9.53001357 2.74490312 5.76615961 -1 2 C-0.67 1.34 -0.34 0.68 0 0 Z " fill="#313D54" transform="translate(238,535)"/>
<path d="M0 0 C0.495 1.485 0.495 1.485 1 3 C-8.72030641 13.56081253 -18.69352914 23.82185226 -28.875 33.9375 C-30.25674924 35.31421347 -31.63826063 36.6911657 -33.01953125 38.06835938 C-36.34363607 41.38164768 -39.670882 44.69174918 -43 48 C-43 43.75308475 -40.53418324 41.97066087 -37.75 39.0625 C-37.25886719 38.53720703 -36.76773438 38.01191406 -36.26171875 37.47070312 C-29.13931544 29.88296947 -29.13931544 29.88296947 -25.5 27.0625 C-22.8967558 24.91482353 -21.07185338 22.65456215 -19 20 C-16.52478447 17.39785034 -14.09306252 15.07191195 -11.25 12.875 C-8.74947545 11.12568403 -8.74947545 11.12568403 -8 8 C-7.34 8 -6.68 8 -6 8 C-6 7.34 -6 6.68 -6 6 C-4.37550757 4.29220027 -2.70779973 2.62449243 -1 1 C-0.67 0.67 -0.34 0.34 0 0 Z " fill="#32415A" transform="translate(587,335)"/>
<path d="M0 0 C0.66 0.33 1.32 0.66 2 1 C-7.27272727 11.4040404 -7.27272727 11.4040404 -12 16 C-12.928125 16.928125 -13.85625 17.85625 -14.8125 18.8125 C-15.534375 19.534375 -16.25625 20.25625 -17 21 C-17.99 20.67 -18.98 20.34 -20 20 C-19.67 19.01 -19.34 18.02 -19 17 C-19.66 16.67 -20.32 16.34 -21 16 C-20.401875 15.443125 -19.80375 14.88625 -19.1875 14.3125 C-17.0136554 12.01443571 -15.53101917 9.75583451 -14 7 C-13.01 7.66 -12.02 8.32 -11 9 C-6.7973607 6.36113346 -3.43361902 3.63559661 0 0 Z " fill="#EE622C" transform="translate(288,218)"/>
<path d="M0 0 C5.24284116 4.3690343 10.51941304 8.83277764 15 14 C15 14.66 15 15.32 15 16 C15.61875 16.268125 16.2375 16.53625 16.875 16.8125 C19 18 19 18 21 21 C20.34 21 19.68 21 19 21 C18.896875 21.763125 18.79375 22.52625 18.6875 23.3125 C17.95635961 26.17059424 17.23048087 27.15742885 15 29 C14.34 28.01 13.68 27.02 13 26 C12.67 26.66 12.34 27.32 12 28 C12 25 12 25 14 22.8125 C14.99 21.9153125 14.99 21.9153125 16 21 C15.01 20.34 14.02 19.68 13 19 C13 18.34 13 17.68 13 17 C12.34 17 11.68 17 11 17 C10.76539063 16.27039063 10.53078125 15.54078125 10.2890625 14.7890625 C8.7869374 11.53901001 6.9954278 9.79577615 4.375 7.375 C1.8984375 5.0859375 1.8984375 5.0859375 0 3 C0 2.01 0 1.02 0 0 Z " fill="#E9652E" transform="translate(277,394)"/>
<path d="M0 0 C0.33 0.99 0.66 1.98 1 3 C0.02727325 4.35335895 -0.9739266 5.68662604 -2 7 C-2 7.99 -2 8.98 -2 10 C-3.95597184 11.39712274 -5.9659094 12.71927629 -8 14 C-9.07584218 14.87976543 -10.13883852 15.77550618 -11.1875 16.6875 C-14 19 -14 19 -17 20 C-17.28875 20.66 -17.5775 21.32 -17.875 22 C-19 24 -19 24 -21.625 24.75 C-22.40875 24.8325 -23.1925 24.915 -24 25 C-20.19985226 20.445213 -16.34334454 16.04720741 -12 12 C-11.34 12 -10.68 12 -10 12 C-9.75507813 11.42765625 -9.51015625 10.8553125 -9.2578125 10.265625 C-7.78889901 7.61975598 -6.04651756 5.85146861 -3.875 3.75 C-3.15054688 3.04359375 -2.42609375 2.3371875 -1.6796875 1.609375 C-1.12539062 1.07828125 -0.57109375 0.5471875 0 0 Z " fill="#E7632E" transform="translate(173,157)"/>
<path d="M0 0 C0.66 0.33 1.32 0.66 2 1 C-2.22948983 5.27880227 -6.46541185 9.55108979 -10.70751953 13.81738281 C-12.15072972 15.27067173 -13.59214264 16.7257477 -15.03173828 18.18261719 C-17.09722341 20.27226835 -19.16901486 22.35547908 -21.2421875 24.4375 C-21.88807831 25.09371338 -22.53396912 25.74992676 -23.19943237 26.42602539 C-23.79990387 27.02664795 -24.40037537 27.62727051 -25.01904297 28.24609375 C-25.8118013 29.04551392 -25.8118013 29.04551392 -26.62057495 29.86108398 C-28 31 -28 31 -30 31 C-28.55922954 27.63820226 -26.75249979 25.40843732 -24 23 C-23.34 23 -22.68 23 -22 23 C-21.7525 22.4225 -21.505 21.845 -21.25 21.25 C-19.81700012 18.67060021 -18.21575324 16.93878408 -16 15 C-15.34 15 -14.68 15 -14 15 C-13.773125 14.44699219 -13.54625 13.89398438 -13.3125 13.32421875 C-11.61628183 10.32049907 -9.4561363 8.22936668 -7 5.8125 C-6.113125 4.93207031 -5.22625 4.05164063 -4.3125 3.14453125 C-2 1 -2 1 0 0 Z " fill="#303E56" transform="translate(517,407)"/>
<path d="M0 0 C0 3 0 3 -1.4765625 4.796875 C-10.06235331 12.60213937 -20.14500543 18.79560354 -32 19 C-29.20927542 17.13951694 -27.21242496 16.36484426 -24.0625 15.375 C-14.97734578 12.15784327 -7.16225876 6.36645223 0 0 Z " fill="#F27948" transform="translate(361,361)"/>
<path d="M0 0 C0.66 0.33 1.32 0.66 2 1 C-4.1009299 7.92617646 -10.41304475 14.536808 -17 21 C-17.99 20.67 -18.98 20.34 -20 20 C-19.01 18.515 -19.01 18.515 -18 17 C-17.34 17 -16.68 17 -16 17 C-16 16.34 -16 15.68 -16 15 C-15.34 15 -14.68 15 -14 15 C-13.34 13.68 -12.68 12.36 -12 11 C-11.34 11 -10.68 11 -10 11 C-9.938125 10.401875 -9.87625 9.80375 -9.8125 9.1875 C-8.66864193 6.10788212 -6.82304548 5.57565329 -4 4 C-2.63015802 2.70420353 -1.2848951 1.38007251 0 0 Z " fill="#2F3F56" transform="translate(413,510)"/>
<path d="M0 0 C5.028097 4.13421309 9.63195289 8.56561579 14.09106445 13.30395508 C16.5743349 15.86936138 18.36532756 17.6169549 22 18 C21.67 18.99 21.34 19.98 21 21 C15.46532744 19.51979687 12.13998904 15.5824455 8.25 11.625 C7.22326172 10.61566406 7.22326172 10.61566406 6.17578125 9.5859375 C5.52480469 8.93109375 4.87382812 8.27625 4.203125 7.6015625 C3.61176758 7.00682129 3.02041016 6.41208008 2.41113281 5.79931641 C0.88510689 3.85350134 0.40821951 2.41673928 0 0 Z " fill="#FD8751" transform="translate(190,487)"/>
<path d="M0 0 C-0.99 0.33 -1.98 0.66 -3 1 C-3 1.66 -3 2.32 -3 3 C-4.3921875 3.4640625 -4.3921875 3.4640625 -5.8125 3.9375 C-11.66103017 6.41508508 -16.21432977 10.92723935 -21 15 C-22.66196627 16.33918769 -24.32716486 17.67441403 -26 19 C-26 16 -26 16 -24.19921875 13.984375 C-7.74442772 -0.65347954 -7.74442772 -0.65347954 0 0 Z " fill="#FB8351" transform="translate(287,253)"/>
<path d="M0 0 C3.56764285 1.51376081 5.83706287 3.60513129 8.546875 6.3515625 C9.39121094 7.20234375 10.23554688 8.053125 11.10546875 8.9296875 C12.41451172 10.26386719 12.41451172 10.26386719 13.75 11.625 C14.63816406 12.5221875 15.52632813 13.419375 16.44140625 14.34375 C18.63216969 16.55807004 20.81812763 18.77692435 23 21 C22.01 21.33 21.02 21.66 20 22 C18.62437146 20.71034824 17.29233607 19.37310707 16 18 C16 17.34 16 16.68 16 16 C15.01 16 14.02 16 13 16 C11.71875 14.50390625 11.71875 14.50390625 10.5 12.5625 C8.53380379 9.40503705 8.53380379 9.40503705 5 8 C4.855625 7.360625 4.71125 6.72125 4.5625 6.0625 C4.19895007 3.79688294 4.19895007 3.79688294 1.9375 2.75 C1.298125 2.5025 0.65875 2.255 0 2 C0 1.34 0 0.68 0 0 Z " fill="#323B56" transform="translate(351,51)"/>
<path d="M0 0 C0.94875 0.350625 1.8975 0.70125 2.875 1.0625 C5.87060172 2.35026777 5.87060172 2.35026777 8 1 C8.66 1.66 9.32 2.32 10 3 C9.38125 3.2475 8.7625 3.495 8.125 3.75 C5.64931313 5.20628639 5.04874998 6.37812506 4 9 C1.11424181 8.60196439 0.17810487 8.20990931 -1.75 5.9375 C-2.1625 5.298125 -2.575 4.65875 -3 4 C-2.34 3.34 -1.68 2.68 -1 2 C-0.67 1.34 -0.34 0.68 0 0 Z " fill="#E5632C" transform="translate(207,496)"/>
<path d="M0 0 C2.46800047 1.15173355 4.04783565 2.04783565 6 4 C5.73441476 7.85098598 3.43956652 10.16695501 1 13 C1.33 13.66 1.66 14.32 2 15 C0.68 15 -0.64 15 -2 15 C-1.49575817 12.98303268 -0.99533738 10.98507962 -0.375 9 C0.0598433 6.68083575 -0.41708987 5.25877677 -1 3 C-0.67 2.01 -0.34 1.02 0 0 Z " fill="#E9602D" transform="translate(290,203)"/>
<path d="M0 0 C7.62758508 6.38226506 14.23244905 12.8662743 20 21 C19.01 21 18.02 21 17 21 C17 20.34 17 19.68 17 19 C15.8553125 18.6596875 15.8553125 18.6596875 14.6875 18.3125 C10.80509889 16.41644364 9.71680641 13.67254829 8.0625 9.8125 C7.13650255 7.85518257 7.13650255 7.85518257 5.125 7.0625 C2.26202511 5.63101256 0.87569549 3.54558673 -1 1 C-0.67 0.67 -0.34 0.34 0 0 Z " fill="#343C54" transform="translate(488,187)"/>
<path d="M0 0 C4.48540362 0.40874182 6.97704874 3.56519239 9.9375 6.625 C10.47020508 7.16608398 11.00291016 7.70716797 11.55175781 8.26464844 C15.11835631 11.94112366 18.24372237 15.66870658 21 20 C14.89045006 17.28464447 10.96064227 12.89677362 6.71484375 7.8984375 C4.68151706 5.64741979 2.37770473 3.87334312 0 2 C0 1.34 0 0.68 0 0 Z " fill="#323C56" transform="translate(464,165)"/>
<path d="M0 0 C3.01813363 1.36337671 5.22421503 2.92664676 7.63671875 5.1875 C8.29607422 5.80367188 8.95542969 6.41984375 9.63476562 7.0546875 C10.31216797 7.69664063 10.98957031 8.33859375 11.6875 9 C12.37650391 9.64195313 13.06550781 10.28390625 13.77539062 10.9453125 C18.86466547 15.72933094 18.86466547 15.72933094 20 18 C19.34 18.66 18.68 19.32 18 20 C16.62437146 18.71034824 15.29233607 17.37310707 14 16 C14 15.34 14 14.68 14 14 C13.01 14 12.02 14 11 14 C9.5703125 12.42578125 9.5703125 12.42578125 8.125 10.3125 C6.2643629 7.68900169 4.43964299 5.2982347 2.125 3.0625 C1.42375 2.381875 0.7225 1.70125 0 1 C0 0.67 0 0.34 0 0 Z " fill="#353D54" transform="translate(411,112)"/>
<path d="M0 0 C0.99 0.33 1.98 0.66 3 1 C0.75243216 2.15082685 -1.49781748 3.29576858 -3.75 4.4375 C-4.38421875 4.76298828 -5.0184375 5.08847656 -5.671875 5.42382812 C-11.07267766 8.15235863 -14.7382991 9.13406787 -20.75 9.0625 C-21.73484375 9.05347656 -22.7196875 9.04445313 -23.734375 9.03515625 C-24.48203125 9.02355469 -25.2296875 9.01195312 -26 9 C-25.67 8.34 -25.34 7.68 -25 7 C-22.75 6.62109375 -22.75 6.62109375 -20 6.4375 C-16.69240381 6.46519462 -16.69240381 6.46519462 -14 5 C-12.58958775 4.67945176 -11.17128557 4.39325589 -9.75 4.125 C-5.948397 3.33450795 -3.31021012 2.04454154 0 0 Z " fill="#313C56" transform="translate(335,587)"/>
<path d="M0 0 C3.39540434 1.13180145 4.15357852 2.10357199 6.375 4.8125 C8.34903007 7.14582006 10.10572847 9.08458277 12.5 11 C16.53601415 14.22881132 20.6692462 18.3384924 23 23 C19.46183947 21.48968674 17.16633853 19.42406644 14.453125 16.71875 C13.60878906 15.87699219 12.76445312 15.03523438 11.89453125 14.16796875 C11.02183594 13.28753906 10.14914062 12.40710938 9.25 11.5 C8.36183594 10.61957031 7.47367187 9.73914063 6.55859375 8.83203125 C5.29982422 7.56939453 5.29982422 7.56939453 4.015625 6.28125 C3.24508789 5.50845703 2.47455078 4.73566406 1.68066406 3.93945312 C0 2 0 2 0 0 Z " fill="#313C55" transform="translate(404,283)"/>
<path d="M0 0 C-1.50944973 3.84223567 -3.76843042 5.51995823 -7 8 C-9.70953375 10.58350893 -11.92095344 12.88143016 -14 16 C-14.66 16 -15.32 16 -16 16 C-16 16.66 -16 17.32 -16 18 C-17.96147874 19.38938077 -19.96166576 20.7260411 -22 22 C-20.51770549 18.56394819 -18.5704826 16.31298409 -15.9375 13.671875 C-15.14085937 12.87265625 -14.34421875 12.0734375 -13.5234375 11.25 C-12.27433594 10.0125 -12.27433594 10.0125 -11 8.75 C-10.16726563 7.90953125 -9.33453125 7.0690625 -8.4765625 6.203125 C-7.67992187 5.4090625 -6.88328125 4.615 -6.0625 3.796875 C-5.33160156 3.06823242 -4.60070312 2.33958984 -3.84765625 1.58886719 C-2 0 -2 0 0 0 Z " fill="#39425C" transform="translate(401,346)"/>
<path d="M0 0 C0.33 0 0.66 0 1 0 C1.48050516 6.66700911 0.18360604 10.69207005 -3 16.5 C-3.57234375 17.59054687 -3.57234375 17.59054687 -4.15625 18.703125 C-5.08960139 20.47649265 -6.04278103 22.23940082 -7 24 C-7.66 24 -8.32 24 -9 24 C-7.3492377 18.86429507 -5.33593894 13.95732044 -3.21875 9 C-2.01360267 6.03348351 -0.97958087 3.04758492 0 0 Z " fill="#EF7548" transform="translate(379,327)"/>
<path d="M0 0 C4.4461093 0.3966013 6.62097517 3.46478382 9.375 6.625 C9.85815674 7.16608398 10.34131348 7.70716797 10.83911133 8.26464844 C12.23614571 9.83458196 13.62048264 11.41466964 15 13 C15.67675781 13.77601563 16.35351562 14.55203125 17.05078125 15.3515625 C18.37838613 16.89145742 19.69144703 18.44388296 21 20 C20.01 20.33 19.02 20.66 18 21 C17.67 20.01 17.34 19.02 17 18 C15.53981978 16.73451047 14.07524 15.472692 12.56640625 14.265625 C10.55190324 12.63794675 8.72887336 10.92835875 7 9 C7 8.34 7 7.68 7 7 C6.34 7 5.68 7 5 7 C0 1.4047619 0 1.4047619 0 0 Z " fill="#344057" transform="translate(442,143)"/>
<path d="M0 0 C1.33333333 1.33333333 2.66666667 2.66666667 4 4 C5.11375 5.051875 5.11375 5.051875 6.25 6.125 C8 8 8 8 8 10 C8.556875 10.226875 9.11375 10.45375 9.6875 10.6875 C13.68438886 12.95600449 16.53966649 15.61899946 18 20 C14.84795019 18.60652624 12.73828227 16.97514921 10.328125 14.5234375 C9.33232422 13.51796875 9.33232422 13.51796875 8.31640625 12.4921875 C7.63449219 11.79351562 6.95257813 11.09484375 6.25 10.375 C5.20392578 9.31539062 5.20392578 9.31539062 4.13671875 8.234375 C2.41987512 6.49401297 0.70788168 4.74915019 -1 3 C-0.67 2.01 -0.34 1.02 0 0 Z " fill="#333C52" transform="translate(244,121)"/>
<path d="M0 0 C0.66 0.33 1.32 0.66 2 1 C-4.93 7.93 -11.86 14.86 -19 22 C-19.66 21.67 -20.32 21.34 -21 21 C-20.57847656 20.51789063 -20.15695312 20.03578125 -19.72265625 19.5390625 C-18.90087891 18.59160156 -18.90087891 18.59160156 -18.0625 17.625 C-17.51722656 16.99851562 -16.97195313 16.37203125 -16.41015625 15.7265625 C-14.93041376 14.04367666 -14.93041376 14.04367666 -14 12 C-12.8553125 11.3503125 -12.8553125 11.3503125 -11.6875 10.6875 C-8.68944713 8.80500169 -7.16623769 6.77549204 -5 4 C-3.36643049 2.62631655 -1.7074998 1.28062485 0 0 Z " fill="#314059" transform="translate(540,384)"/>
<path d="M0 0 C-1.4859916 4.59306496 -3.85014682 7.43569245 -7 11 C-9 9 -9 9 -9.125 5.875 C-9.08375 4.92625 -9.0425 3.9775 -9 3 C-8.34 3 -7.68 3 -7 3 C-6.67 2.34 -6.34 1.68 -6 1 C-4 0 -4 0 0 0 Z " fill="#EC5A2E" transform="translate(370,352)"/>
<path d="M0 0 C0.66 0.33 1.32 0.66 2 1 C0.625 3 0.625 3 -1 5 C-1.66 5 -2.32 5 -3 5 C-3 5.66 -3 6.32 -3 7 C-3.99 6.67 -4.98 6.34 -6 6 C-4.02 4.02 -2.04 2.04 0 0 Z M-7 7 C-7 10 -7 10 -9 13 C-9.66 13 -10.32 13 -11 13 C-11.33 13.99 -11.66 14.98 -12 16 C-13.4375 17.6875 -13.4375 17.6875 -15 19 C-15.66 19 -16.32 19 -17 19 C-17 19.66 -17 20.32 -17 21 C-17.66 21 -18.32 21 -19 21 C-17.41332422 17.09714233 -14.86649519 14.66479018 -11.875 11.75 C-10.96492188 10.85796875 -10.05484375 9.9659375 -9.1171875 9.046875 C-8.41851562 8.37140625 -7.71984375 7.6959375 -7 7 Z " fill="#3A415B" transform="translate(375,370)"/>
<path d="M0 0 C2.85919936 1.2943386 4.88028642 2.64555749 7.05859375 4.8984375 C7.88520508 5.74148438 7.88520508 5.74148438 8.72851562 6.6015625 C9.29248047 7.18679688 9.85644531 7.77203125 10.4375 8.375 C14.12902103 12.18121731 17.76272891 15.78442605 22 19 C21.67 19.99 21.34 20.98 21 22 C18.00611124 19.03075698 15.01546454 16.05829855 12.02783203 13.08276367 C11.01017212 12.0701449 9.99161821 11.05842377 8.97216797 10.04760742 C7.51035593 8.5978706 6.05174758 7.14497792 4.59375 5.69140625 C3.71396484 4.81685791 2.83417969 3.94230957 1.92773438 3.04125977 C0 1 0 1 0 0 Z " fill="#FE7F4F" transform="translate(253,372)"/>
<path d="M0 0 C3.16168368 1.43130275 5.62274483 3.17514138 8.25 5.4375 C8.95640625 6.03433594 9.6628125 6.63117188 10.390625 7.24609375 C12 9 12 9 12 12 C11.01 12.495 11.01 12.495 10 13 C4.83501656 9.41320595 2.76331432 5.52662864 0 0 Z " fill="#FA683C" transform="translate(243,362)"/>
<path d="M0 0 C4.15300707 3.3947333 7.73067044 6.71605092 11 11 C12.31494512 12.35147138 13.64264858 13.69112542 15 15 C10.68433833 14.52048204 8.7980059 13.29764982 6 10 C5.67 9.34 5.34 8.68 5 8 C4.34 7.67 3.68 7.34 3 7 C0 3.53846154 0 3.53846154 0 0 Z " fill="#303C53" transform="translate(519,218)"/>
<path d="M0 0 C5.62219846 4.66522851 11.16010796 9.51259405 16 15 C16 15.66 16 16.32 16 17 C12.63820226 15.55922954 10.40843732 13.75249979 8 11 C8 10.34 8 9.68 8 9 C7.4225 8.7525 6.845 8.505 6.25 8.25 C3.65091342 6.80606301 1.92163162 5.26478013 0 3 C0 2.01 0 1.02 0 0 Z " fill="#303E57" transform="translate(375,74)"/>
<path d="M0 0 C5.29012124 4.40843437 10.18808428 9.07559794 15 14 C14.67 14.99 14.34 15.98 14 17 C12.66070495 15.71451591 11.32871357 14.42141845 10 13.125 C9.2575 12.40570313 8.515 11.68640625 7.75 10.9453125 C6 9 6 9 6 7 C5.401875 6.7525 4.80375 6.505 4.1875 6.25 C1.71352479 4.83629988 0.56629745 3.34944617 -1 1 C-0.67 0.67 -0.34 0.34 0 0 Z " fill="#FD7A47" transform="translate(60,357)"/>
<path d="M0 0 C0.66 0.33 1.32 0.66 2 1 C1.67 1.66 1.34 2.32 1 3 C0.34 3 -0.32 3 -1 3 C-1 4.32 -1 5.64 -1 7 C-2.609375 8.6328125 -2.609375 8.6328125 -4.75 10.125 C-5.44609375 10.62257813 -6.1421875 11.12015625 -6.859375 11.6328125 C-8.85669852 12.90847533 -10.85929754 13.98750559 -13 15 C-11.38989473 10.92623969 -8.46177729 8.23492931 -5.375 5.25 C-4.859375 4.74339844 -4.34375 4.23679687 -3.8125 3.71484375 C-2.54616661 2.47196098 -1.2736856 1.23534724 0 0 Z " fill="#333F5B" transform="translate(430,314)"/>
<path d="M0 0 C4.33210978 1.50473725 5.63671196 4.26346729 7.75 8.1875 C8.67039062 9.84845703 8.67039062 9.84845703 9.609375 11.54296875 C11.11887414 15.29551577 11.26465307 17.99457762 11 22 C9.25209167 19.3781375 8.27432043 17.28860371 7.1875 14.375 C5.21528527 9.31422257 2.75441498 4.6734746 0 0 Z " fill="#F07344" transform="translate(368,275)"/>
<path d="M0 0 C0 0.33 0 0.66 0 1 C-2.64 1.33 -5.28 1.66 -8 2 C-8 2.66 -8 3.32 -8 4 C-9.216875 4.103125 -10.43375 4.20625 -11.6875 4.3125 C-15.46927349 4.76524753 -17.76008689 5.98599996 -21 8 C-23.8125 8.1875 -23.8125 8.1875 -26 8 C-24.68 7.67 -23.36 7.34 -22 7 C-22 6.34 -22 5.68 -22 5 C-7.40318907 -0.74031891 -7.40318907 -0.74031891 0 0 Z " fill="#EB6835" transform="translate(306,249)"/>
<path d="M0 0 C3.91057234 3.25881029 7.70930002 6.59163576 11.375 10.125 C12.04273438 10.76695312 12.71046875 11.40890625 13.3984375 12.0703125 C15.07730775 14.09314641 15.60038627 15.43105462 16 18 C11.87555145 14.57758525 7.913432 11.04156707 4.0625 7.3125 C3.29035156 6.56613281 2.51820313 5.81976563 1.72265625 5.05078125 C0 3 0 3 0 0 Z " fill="#FA7B4B" transform="translate(277,394)"/>
<path d="M0 0 C3.57829108 1.55253 6.1689217 3.71569896 9.0625 6.3125 C9.91972656 7.07175781 10.77695312 7.83101563 11.66015625 8.61328125 C13.9376911 10.93644284 15.46046685 13.14807793 17 16 C16.01 15.67 15.02 15.34 14 15 C14 14.34 14 13.68 14 13 C13.44828125 12.77441406 12.8965625 12.54882812 12.328125 12.31640625 C9.30047473 10.60446306 7.18674251 8.41342989 4.75 5.9375 C3.85796875 5.03902344 2.9659375 4.14054687 2.046875 3.21484375 C0 1 0 1 0 0 Z " fill="#353E56" transform="translate(391,92)"/>
<path d="M0 0 C0.66 0.66 1.32 1.32 2 2 C0.38150935 3.83946539 -1.24418831 5.67151417 -2.875 7.5 C-3.33519531 8.02464844 -3.79539062 8.54929688 -4.26953125 9.08984375 C-5.47172076 10.43141755 -6.73245946 11.71999185 -8 13 C-8.66 13 -9.32 13 -10 13 C-10 13.66 -10 14.32 -10 15 C-10.66 15 -11.32 15 -12 15 C-12 12 -12 12 -10.5390625 10.5 C-9.90742188 10.005 -9.27578125 9.51 -8.625 9 C-6.13659847 7.03385558 -4.8042713 5.70640694 -3 3 C-2.34 3 -1.68 3 -1 3 C-0.67 2.01 -0.34 1.02 0 0 Z " fill="#F86E42" transform="translate(266,239)"/>
<path d="M0 0 C0.66 0.99 1.32 1.98 2 3 C4.99705917 7.0692549 4.99705917 7.0692549 9 10 C9 10.99 9 11.98 9 13 C6.13302508 11.71480435 4.02392288 10.42870746 2 8 C2 7.34 2 6.68 2 6 C0.68 5.34 -0.64 4.68 -2 4 C-2 3.01 -2 2.02 -2 1 C-1.34 0.67 -0.68 0.34 0 0 Z " fill="#353C52" transform="translate(294,170)"/>
<path d="M0 0 C5.66129431 4.69766975 10.85228904 9.74723372 16 15 C15.01 15.33 14.02 15.66 13 16 C12.54109375 15.45730469 12.0821875 14.91460937 11.609375 14.35546875 C10.99578125 13.64003906 10.3821875 12.92460937 9.75 12.1875 C9.14671875 11.47980469 8.5434375 10.77210938 7.921875 10.04296875 C5.14754331 7.09383161 2.85533983 5.28511328 -1 4 C-0.67 2.68 -0.34 1.36 0 0 Z " fill="#E26432" transform="translate(212,123)"/>
<path d="M0 0 C0.33 0.66 0.66 1.32 1 2 C-0.64191142 3.80610256 -1.74103922 4.90583244 -4.0625 5.75 C-7.14073297 7.73595675 -7.23792762 10.57067428 -8 14 C-8.103125 13.360625 -8.20625 12.72125 -8.3125 12.0625 C-8.539375 11.381875 -8.76625 10.70125 -9 10 C-9.99 9.67 -10.98 9.34 -12 9 C-8.04 6.03 -4.08 3.06 0 0 Z " fill="#ED6731" transform="translate(279,257)"/>
<path d="M0 0 C0.66 0.33 1.32 0.66 2 1 C1.34 2.32 0.68 3.64 0 5 C2.31 7.64 4.62 10.28 7 13 C6.67 13.66 6.34 14.32 6 15 C4.46452525 13.59921602 2.94694852 12.17879097 1.4375 10.75 C0.59058594 9.96109375 -0.25632813 9.1721875 -1.12890625 8.359375 C-3 6 -3 6 -2.90234375 3.828125 C-2 2 -2 2 0 0 Z " fill="#FA7C44" transform="translate(198,308)"/>
<path d="M0 0 C1.53445094 3.06890187 0.54984289 5.70094266 0 9 C-0.66 8.67 -1.32 8.34 -2 8 C-2.99 8.99 -3.98 9.98 -5 11 C-5.66 9.68 -6.32 8.36 -7 7 C-6.01 6.67 -5.02 6.34 -4 6 C-2.90833725 4.06669397 -2.90833725 4.06669397 -2 2 C-1.34 1.34 -0.68 0.68 0 0 Z " fill="#E56530" transform="translate(197,133)"/>
<path d="M0 0 C0.33 0 0.66 0 1 0 C1.2358396 5.77807024 0.86783046 10.51324804 -1 16 C-3.48824257 12.26763615 -2.99011601 11.1728793 -2.1875 6.875 C-1.99542969 5.79992187 -1.80335938 4.72484375 -1.60546875 3.6171875 C-1 1 -1 1 0 0 Z " fill="#E3632C" transform="translate(379,317)"/>
<path d="M0 0 C1.32 0.66 2.64 1.32 4 2 C3.67 2.66 3.34 3.32 3 4 C2.39671875 4.14308594 1.7934375 4.28617187 1.171875 4.43359375 C-1.46290697 5.12072214 -2.74178529 6.24738285 -4.75 8.0625 C-5.36359375 8.61035156 -5.9771875 9.15820312 -6.609375 9.72265625 C-7.06828125 10.14417969 -7.5271875 10.56570312 -8 11 C-7.43040847 7.37386801 -6.07625466 5.74482259 -3.4375 3.25 C-2.79683594 2.63640625 -2.15617188 2.0228125 -1.49609375 1.390625 C-1.00238281 0.93171875 -0.50867188 0.4728125 0 0 Z " fill="#F58E5B" transform="translate(209,118)"/>
<path d="M0 0 C3.65938172 1.43164111 7.23988068 2.98934296 10.8125 4.625 C12.27623047 5.29402344 12.27623047 5.29402344 13.76953125 5.9765625 C14.50558594 6.31429687 15.24164063 6.65203125 16 7 C16 7.66 16 8.32 16 9 C10.01311416 7.43820369 4.84142511 5.94958365 0 2 C0 1.34 0 0.68 0 0 Z " fill="#323E57" transform="translate(289,586)"/>
<path d="M0 0 C3.38749978 1.45178562 5.45161209 3.36940603 8 6 C8.99 6.66 9.98 7.32 11 8 C12.03647024 9.30518475 13.04422943 10.63461347 14 12 C13.67 12.66 13.34 13.32 13 14 C10.83031809 11.85714108 8.66416525 9.71091768 6.5 7.5625 C5.87996094 6.95083984 5.25992188 6.33917969 4.62109375 5.70898438 C4.03457031 5.12568359 3.44804688 4.54238281 2.84375 3.94140625 C2.02680664 3.13231812 2.02680664 3.13231812 1.19335938 2.30688477 C0 1 0 1 0 0 Z " fill="#DB642E" transform="translate(97,393)"/>
<path d="M0 0 C1.44886775 4.46407901 0.07738263 6.84523475 -2 11 C-3.6875 13.4375 -3.6875 13.4375 -5 15 C-4.5188509 9.22621075 -2.81532819 5.04140164 0 0 Z " fill="#E46533" transform="translate(38,293)"/>
<path d="M0 0 C0.66 0.33 1.32 0.66 2 1 C0.59419724 2.65512248 -0.82506266 4.29882206 -2.25 5.9375 C-3.03890625 6.85402344 -3.8278125 7.77054688 -4.640625 8.71484375 C-6.91251033 10.91526249 -7.92319022 11.66832555 -11 12 C-7.49102731 7.81576108 -3.91939465 3.80411834 0 0 Z " fill="#F97B4D" transform="translate(288,218)"/>
<path d="M0 0 C0.66 0.66 1.32 1.32 2 2 C1.38125 2.2475 0.7625 2.495 0.125 2.75 C-2.37818306 4.22246063 -2.83045281 5.41028837 -4 8 C-4.99 8.495 -4.99 8.495 -6 9 C-6.125 3.25 -6.125 3.25 -5 1 C-3.35 1.33 -1.7 1.66 0 2 C0 1.34 0 0.68 0 0 Z " fill="#E3632D" transform="translate(223,489)"/>
<path d="M0 0 C0.99 0.33 1.98 0.66 3 1 C0.69 3.64 -1.62 6.28 -4 9 C-4.99 8.34 -5.98 7.68 -7 7 C-4.66666667 4.66666667 -2.33333333 2.33333333 0 0 Z " fill="#2F3558" transform="translate(306,438)"/>
<path d="M0 0 C0.66 0.66 1.32 1.32 2 2 C-0.64 4.64 -3.28 7.28 -6 10 C-6.99 9.67 -7.98 9.34 -9 9 C-6.03 6.03 -3.06 3.06 0 0 Z " fill="#FB794C" transform="translate(253,253)"/>
<path d="M0 0 C3.36179774 1.44077046 5.59156268 3.24750021 8 6 C8 6.66 8 7.32 8 8 C8.99 8.33 9.98 8.66 11 9 C10.67 9.99 10.34 10.98 10 12 C8.32737283 10.38113585 6.66204463 8.7547271 5 7.125 C4.071875 6.22007812 3.14375 5.31515625 2.1875 4.3828125 C0 2 0 2 0 0 Z " fill="#303D53" transform="translate(316,195)"/>
<path d="M0 0 C2.31 0.66 4.62 1.32 7 2 C7.33 3.98 7.66 5.96 8 8 C7.401875 7.690625 6.80375 7.38125 6.1875 7.0625 C3.91043228 5.89790296 3.91043228 5.89790296 1 5 C1 4.01 1 3.02 1 2 C0.67 1.34 0.34 0.68 0 0 Z " fill="#E6652E" transform="translate(56,352)"/>
<path d="M0 0 C0.99 0.33 1.98 0.66 3 1 C0.36 3.64 -2.28 6.28 -5 9 C-5.99 8.67 -6.98 8.34 -8 8 C-5.36 5.36 -2.72 2.72 0 0 Z " fill="#FA754F" transform="translate(208,298)"/>
<path d="M0 0 C0.66 0 1.32 0 2 0 C0.31326082 4.49797113 -1.81673892 8.72886302 -4 13 C-4.33 13 -4.66 13 -5 13 C-4.56744475 7.59305933 -3.41778487 4.24633878 0 0 Z " fill="#FB794F" transform="translate(38,290)"/>
<path d="M0 0 C5.34844008 0.53484401 9.35796103 2.46690767 14 5 C10.17660695 6.27446435 8.72994863 5.34278151 5 4 C3.33911955 3.63893903 1.67381019 3.29537827 0 3 C0 2.01 0 1.02 0 0 Z " fill="#E76A36" transform="translate(331,250)"/>
<path d="M0 0 C4.41889613 1.35021826 6.34345343 3.26115668 9 7 C8.67 7.66 8.34 8.32 8 9 C7.01 9 6.02 9 5 9 C4.731875 8.2575 4.46375 7.515 4.1875 6.75 C3.05770579 4.13363446 1.79106798 2.19812889 0 0 Z " fill="#E26634" transform="translate(183,479)"/>
<path d="M0 0 C-2.16526269 2.16526269 -3.58051386 2.75544982 -6.4375 3.75 C-7.21996094 4.03359375 -8.00242187 4.3171875 -8.80859375 4.609375 C-11 5 -11 5 -14 3 C-9.03006806 0.56574762 -5.65394631 -0.34615998 0 0 Z " fill="#EE7A4A" transform="translate(298,249)"/>
<path d="M0 0 C0.33 0.66 0.66 1.32 1 2 C0.01 3.485 0.01 3.485 -1 5 C-1.66 5 -2.32 5 -3 5 C-2.67 6.32 -2.34 7.64 -2 9 C-2.99 9.495 -2.99 9.495 -4 10 C-4.99 9.01 -5.98 8.02 -7 7 C-4.69 4.69 -2.38 2.38 0 0 Z " fill="#E66832" transform="translate(181,149)"/>
<path d="M0 0 C3.11728368 1.36508501 5.08663738 2.86919698 7.3125 5.4375 C7.84488281 6.03433594 8.37726563 6.63117188 8.92578125 7.24609375 C9.45751953 8.11427734 9.45751953 8.11427734 10 9 C9.67 9.99 9.34 10.98 9 12 C7.49707257 10.18992669 5.99772829 8.37687764 4.5 6.5625 C3.6646875 5.55316406 2.829375 4.54382813 1.96875 3.50390625 C0 1 0 1 0 0 Z " fill="#F57235" transform="translate(255,351)"/>
<path d="M0 0 C0 3.28176588 -0.47835901 5.10888212 -2 8 C-3.875 8.75 -3.875 8.75 -6 9 C-7.11375 9.2784375 -7.11375 9.2784375 -8.25 9.5625 C-8.8275 9.706875 -9.405 9.85125 -10 10 C-6.66666667 6.66666667 -3.33333333 3.33333333 0 0 Z " fill="#E86735" transform="translate(74,256)"/>
<path d="M0 0 C1.14926266 0.95421808 2.29430541 1.91352045 3.4375 2.875 C4.07558594 3.40867188 4.71367188 3.94234375 5.37109375 4.4921875 C7 6 7 6 8 8 C4 8 4 8 2.25 6.625 C1 5 1 5 1 3 C0.34 3 -0.32 3 -1 3 C-0.67 2.01 -0.34 1.02 0 0 Z " fill="#323A55" transform="translate(536,235)"/>
<path d="M0 0 C1.32 0.33 2.64 0.66 4 1 C2.02 2.98 0.04 4.96 -2 7 C-2.99 6.67 -3.98 6.34 -5 6 C-3.35 4.02 -1.7 2.04 0 0 Z " fill="#FA7350" transform="translate(273,232)"/>
<path d="M0 0 C4.24846075 0.47205119 6.26819288 2.88877522 9 6 C9 6.66 9 7.32 9 8 C4.7257442 6.4169423 2.73468206 3.49431596 0 0 Z " fill="#222A5D" transform="translate(329,210)"/>
<path d="M0 0 C1.14926266 0.95421808 2.29430541 1.91352045 3.4375 2.875 C4.07558594 3.40867188 4.71367188 3.94234375 5.37109375 4.4921875 C7 6 7 6 8 8 C5.75 7.875 5.75 7.875 3 7 C0.6875 3.9375 0.6875 3.9375 -1 1 C-0.67 0.67 -0.34 0.34 0 0 Z " fill="#343C58" transform="translate(510,209)"/>
<path d="M0 0 C1.15224028 0.92961422 2.29659176 1.8690125 3.4375 2.8125 C4.07558594 3.33457031 4.71367187 3.85664063 5.37109375 4.39453125 C7 6 7 6 8 9 C3.7257442 7.4169423 1.73468206 4.49431596 -1 1 C-0.67 0.67 -0.34 0.34 0 0 Z " fill="#3B4250" transform="translate(306,185)"/>
<path d="M0 0 C3.35620271 1.38877354 5.07298728 2.91677965 7 6 C7 6.66 7 7.32 7 8 C4.13275314 7.42655063 3.1385485 7.1385485 1 5 C0.375 2.375 0.375 2.375 0 0 Z " fill="#E7662D" transform="translate(272,184)"/>
<path d="M0 0 C1.15518918 0.90484792 2.29885406 1.8244206 3.4375 2.75 C4.07558594 3.26046875 4.71367187 3.7709375 5.37109375 4.296875 C7.18810554 6.19667629 7.60423197 7.43586908 8 10 C6.84481082 9.09515208 5.70114594 8.1755794 4.5625 7.25 C3.60537109 6.48429687 3.60537109 6.48429687 2.62890625 5.703125 C0.81189446 3.80332371 0.39576803 2.56413092 0 0 Z " fill="#F47E50" transform="translate(190,487)"/>
<path d="M0 0 C0.66 0.33 1.32 0.66 2 1 C0.92492371 2.29854721 -0.16043736 3.58858361 -1.25 4.875 C-1.85328125 5.59429687 -2.4565625 6.31359375 -3.078125 7.0546875 C-4.97087634 8.97052118 -6.53657727 9.96449045 -9 11 C-7.59155282 7.78475695 -5.89655214 5.67816132 -3.375 3.25 C-2.74335938 2.63640625 -2.11171875 2.0228125 -1.4609375 1.390625 C-0.73777344 0.70226562 -0.73777344 0.70226562 0 0 Z " fill="#36425B" transform="translate(411,334)"/>
<path d="M0 0 C1 3 1 3 0.00390625 5.26171875 C-0.47175781 6.06222656 -0.94742188 6.86273438 -1.4375 7.6875 C-1.91058594 8.49574219 -2.38367188 9.30398438 -2.87109375 10.13671875 C-3.24363281 10.75160156 -3.61617187 11.36648438 -4 12 C-5 9 -5 9 -4.00390625 6.73828125 C-3.52824219 5.93777344 -3.05257812 5.13726562 -2.5625 4.3125 C-2.08941406 3.50425781 -1.61632812 2.69601562 -1.12890625 1.86328125 C-0.75636719 1.24839844 -0.38382813 0.63351562 0 0 Z " fill="#F97F53" transform="translate(255,277)"/>
<path d="M0 0 C3.21043882 1.38188453 5.04936365 2.92421903 7.25 5.625 C8.03117188 6.57246094 8.03117188 6.57246094 8.828125 7.5390625 C9.40820312 8.26222656 9.40820312 8.26222656 10 9 C9.01 9 8.02 9 7 9 C6.34 7.68 5.68 6.36 5 5 C4.34 5 3.68 5 3 5 C1.375 2.5 1.375 2.5 0 0 Z " fill="#323F56" transform="translate(578,279)"/>
<path d="M0 0 C7.48291572 6.15034169 7.48291572 6.15034169 10 10 C7.50638429 8.79618552 5.31856917 7.54571278 3 6 C3 5.34 3 4.68 3 4 C2.34 4 1.68 4 1 4 C0.67 2.68 0.34 1.36 0 0 Z " fill="#EA6A34" transform="translate(255,375)"/>
<path d="M0 0 C0.75 1.5625 0.75 1.5625 1 4 C-0.13084437 6.50286409 -1.52139516 8.67007722 -3 11 C-4.35439668 8.29120665 -4.06501451 5.99066732 -4 3 C-3.01 3.495 -3.01 3.495 -2 4 C-1.34 2.68 -0.68 1.36 0 0 Z " fill="#E66438" transform="translate(253,284)"/>
<path d="M0 0 C1.12588014 0.95729916 2.2506715 1.91587895 3.375 2.875 C4.00148438 3.40867187 4.62796875 3.94234375 5.2734375 4.4921875 C6.55836651 5.61432007 7.79371975 6.79371975 9 8 C8.67 8.99 8.34 9.98 8 11 C7.236875 10.071875 6.47375 9.14375 5.6875 8.1875 C4.24047652 6.44038358 2.82178472 4.82793008 1.1875 3.25 C0 2 0 2 0 0 Z " fill="#2F3C53" transform="translate(568,268)"/>
<path d="M0 0 C3 0 3 0 5 1 C5.71727778 2.64551962 6.38325228 4.31422289 7 6 C7.33 6.66 7.66 7.32 8 8 C6.68 7.34 5.36 6.68 4 6 C4 5.34 4 4.68 4 4 C2.68 3.67 1.36 3.34 0 3 C0 2.01 0 1.02 0 0 Z " fill="#E96435" transform="translate(272,392)"/>
<path d="M0 0 C1.98 1.65 3.96 3.3 6 5 C5.67 5.99 5.34 6.98 5 8 C2.5 5.6875 2.5 5.6875 0 3 C0 2.01 0 1.02 0 0 Z " fill="#EB622F" transform="translate(240,360)"/>
<path d="M0 0 C0.33 0.99 0.66 1.98 1 3 C-2.75 6 -2.75 6 -5 6 C-5 6.66 -5 7.32 -5 8 C-5.66 8 -6.32 8 -7 8 C-6.67 6.35 -6.34 4.7 -6 3 C-5.01 3 -4.02 3 -3 3 C-1.31201173 1.56249809 -1.31201173 1.56249809 0 0 Z " fill="#EB6D3C" transform="translate(103,227)"/>
<path d="M0 0 C1.65 1.32 3.3 2.64 5 4 C4.42655063 6.86724686 4.1385485 7.8614515 2 10 C1.855625 8.906875 1.71125 7.81375 1.5625 6.6875 C1.11711896 3.06877013 1.11711896 3.06877013 0 0 Z " fill="#E36731" transform="translate(291,203)"/>
<path d="M0 0 C0 3.10551666 -0.5393715 4.35261084 -2 7 C-2.66 7 -3.32 7 -4 7 C-4 7.66 -4 8.32 -4 9 C-4.99 8.67 -5.98 8.34 -7 8 C-6.02133662 6.85373678 -5.04205413 5.70800212 -4.0625 4.5625 C-3.51722656 3.92441406 -2.97195312 3.28632813 -2.41015625 2.62890625 C-1.63204305 1.73008851 -0.84063472 0.84063472 0 0 Z " fill="#E66734" transform="translate(189,141)"/>
<path d="M0 0 C0.99 0 1.98 0 3 0 C3.33 0.99 3.66 1.98 4 3 C3.54625 3.433125 3.0925 3.86625 2.625 4.3125 C0.79975666 6.10798342 0.79975666 6.10798342 -1 9 C-2.60031344 5.79937313 -1.03173691 3.27728194 0 0 Z " fill="#E9673D" transform="translate(256,275)"/>
<path d="M0 0 C1.32 0.66 2.64 1.32 4 2 C1.03 4.475 1.03 4.475 -2 7 C-1.125 2.25 -1.125 2.25 0 0 Z " fill="#E16533" transform="translate(284,217)"/>
<path d="M0 0 C0 4.38968456 -2.12805101 5.76905739 -5 9 C-5.99 8.67 -6.98 8.34 -8 8 C-5.36 5.36 -2.72 2.72 0 0 Z " fill="#E46431" transform="translate(52,278)"/>
<path d="M0 0 C3.25543229 0.34879632 4.01873107 1.02133261 6.25 3.5625 C6.8275 4.366875 7.405 5.17125 8 6 C5.6875 5.8125 5.6875 5.8125 3 5 C1.1875 2.4375 1.1875 2.4375 0 0 Z " fill="#394153" transform="translate(554,255)"/>
<path d="M0 0 C0.66 0.33 1.32 0.66 2 1 C1.34 2.65 0.68 4.3 0 6 C-3 6 -3 6 -5 5 C-3.35 3.35 -1.7 1.7 0 0 Z " fill="#E86630" transform="translate(127,203)"/>
<path d="M0 0 C0.99 0.495 0.99 0.495 2 1 C2 1.66 2 2.32 2 3 C2.99 3.33 3.98 3.66 5 4 C4.67 5.32 4.34 6.64 4 8 C2 6.25 2 6.25 0 4 C0 2.68 0 1.36 0 0 Z " fill="#353B55" transform="translate(282,160)"/>
<path d="M0 0 C0.33 0.99 0.66 1.98 1 3 C-1.97 5.475 -1.97 5.475 -5 8 C-5.66 7.67 -6.32 7.34 -7 7 C-4.69 4.69 -2.38 2.38 0 0 Z " fill="#E66734" transform="translate(173,157)"/>
<path d="M0 0 C2.31 1.98 4.62 3.96 7 6 C6.67 6.66 6.34 7.32 6 8 C5.34 8 4.68 8 4 8 C2.96210419 6.35666496 1.96432076 4.68756133 1 3 C0.34 2.34 -0.32 1.68 -1 1 C-0.67 0.67 -0.34 0.34 0 0 Z " fill="#313C54" transform="translate(434,134)"/>
<path d="M0 0 C1.65 0 3.3 0 5 0 C5.33 1.98 5.66 3.96 6 6 C3.97945196 4.35830472 1.97956942 2.69088222 0 1 C0 0.67 0 0.34 0 0 Z " fill="#DC602E" transform="translate(161,457)"/>
<path d="M0 0 C0.99 0.33 1.98 0.66 3 1 C-0.465 3.97 -0.465 3.97 -4 7 C-3.39816251 4.97954558 -2.72693904 2.97888961 -2 1 C-1.34 0.67 -0.68 0.34 0 0 Z " fill="#DE6435" transform="translate(270,442)"/>
<path d="M0 0 C3.36720387 1.39332574 4.9859524 2.9789286 7 6 C4.625 5.8125 4.625 5.8125 2 5 C0.6875 2.4375 0.6875 2.4375 0 0 Z " fill="#E36333" transform="translate(280,401)"/>
<path d="M0 0 C0.66 0 1.32 0 2 0 C0.52307692 4.67692308 0.52307692 4.67692308 -2.125 6.3125 C-3.053125 6.6528125 -3.053125 6.6528125 -4 7 C-2.92598892 4.08482708 -2.22189824 2.22189824 0 0 Z " fill="#EE754B" transform="translate(368,352)"/>
<path d="M0 0 C2.375 0.3125 2.375 0.3125 5 1 C5.66 1.99 6.32 2.98 7 4 C6.67 4.99 6.34 5.98 6 7 C4.02 4.69 2.04 2.38 0 0 Z " fill="#DC6633" transform="translate(49,345)"/>
<path d="M0 0 C0.99 0.33 1.98 0.66 3 1 C3 1.66 3 2.32 3 3 C2.34 3 1.68 3 1 3 C0.67 4.32 0.34 5.64 0 7 C-0.66 6.67 -1.32 6.34 -2 6 C-1.125 1.125 -1.125 1.125 0 0 Z " fill="#F0673A" transform="translate(41,286)"/>
<path d="M0 0 C1.14926266 0.95421808 2.29430541 1.91352045 3.4375 2.875 C4.07558594 3.40867188 4.71367187 3.94234375 5.37109375 4.4921875 C7 6 7 6 8 8 C4.82461668 7.65978036 3.97723135 6.97533396 1.75 4.5625 C0 2 0 2 0 0 Z " fill="#E06331" transform="translate(264,176)"/>
<path d="M0 0 C1.32 1.65 2.64 3.3 4 5 C3.67 5.66 3.34 6.32 3 7 C2.401875 6.505 1.80375 6.01 1.1875 5.5 C-0.97029994 3.71723582 -0.97029994 3.71723582 -4 4 C-2.68 2.68 -1.36 1.36 0 0 Z " fill="#E76835" transform="translate(202,128)"/>
<path d="M0 0 C1.98 0 3.96 0 6 0 C6 0.99 6 1.98 6 3 C4.02 3 2.04 3 0 3 C0 2.01 0 1.02 0 0 Z " fill="#224755" transform="translate(312,29)"/>
<path d="M0 0 C4.29425875 1.07356469 4.74740471 1.5084773 7 5 C6.67 5.66 6.34 6.32 6 7 C4.02 4.69 2.04 2.38 0 0 Z " fill="#DB6734" transform="translate(192,488)"/>
<path d="M0 0 C0.99 0.33 1.98 0.66 3 1 C-0.465 3.97 -0.465 3.97 -4 7 C-3.67 5.68 -3.34 4.36 -3 3 C-2.01 2.67 -1.02 2.34 0 2 C0 1.34 0 0.68 0 0 Z " fill="#DE6132" transform="translate(239,473)"/>
<path d="M0 0 C0.66 0 1.32 0 2 0 C2.66 2.31 3.32 4.62 4 7 C2.02 5.35 0.04 3.7 -2 2 C-1.34 1.34 -0.68 0.68 0 0 Z " fill="#DF5F29" transform="translate(156,449)"/>
<path d="M0 0 C2.31 1.98 4.62 3.96 7 6 C3.86248779 6 2.60242414 5.64820195 0 4 C-0.33 3.01 -0.66 2.02 -1 1 C-0.67 0.67 -0.34 0.34 0 0 Z " fill="#E66938" transform="translate(265,385)"/>
<path d="M0 0 C2.31 1.98 4.62 3.96 7 6 C6.01 6.495 6.01 6.495 5 7 C2.5 5.1875 2.5 5.1875 0 3 C0 2.01 0 1.02 0 0 Z " fill="#E96636" transform="translate(248,368)"/>
<path d="M0 0 C2.475 0.495 2.475 0.495 5 1 C5.33 2.65 5.66 4.3 6 6 C3.97945196 4.35830472 1.97956942 2.69088222 0 1 C0 0.67 0 0.34 0 0 Z " fill="#DD6431" transform="translate(65,361)"/>
<path d="M0 0 C0.33 0.66 0.66 1.32 1 2 C-0.93254772 4.0245738 -2.63158688 5.42105792 -5 7 C-5.66 6.34 -6.32 5.68 -7 5 C-4.69 3.35 -2.38 1.7 0 0 Z " fill="#E96E37" transform="translate(279,257)"/>
<path d="M0 0 C0.99 0.495 0.99 0.495 2 1 C2 1.66 2 2.32 2 3 C3.32 3.66 4.64 4.32 6 5 C6 5.66 6 6.32 6 7 C3.5625 6.3125 3.5625 6.3125 1 5 C0.1875 2.375 0.1875 2.375 0 0 Z " fill="#E26A3B" transform="translate(248,159)"/>
<path d="M0 0 C0.66 0 1.32 0 2 0 C2 0.66 2 1.32 2 2 C1.34 2 0.68 2 0 2 C-0.33 2.99 -0.66 3.98 -1 5 C-3.5625 6.1875 -3.5625 6.1875 -6 7 C-5.04882866 5.8274869 -4.08882991 4.66212985 -3.125 3.5 C-2.59132812 2.8503125 -2.05765625 2.200625 -1.5078125 1.53125 C-0.76144531 0.77328125 -0.76144531 0.77328125 0 0 Z " fill="#DC6936" transform="translate(209,121)"/>
</svg>
